<svg id="svg" version="1.1" xmlns="http://www.w3.org/2000/svg" xmlns:xlink="http://www.w3.org/1999/xlink" width="400" height="400" viewBox="0, 0, 400,400"><g id="svgg"><path id="path0" d="M348.524 7.700 C 348.346 7.975,348.016 8.560,347.791 9.000 C 347.480 9.607,346.853 9.848,345.191 10.000 C 343.407 10.163,342.927 10.367,342.605 11.100 C 342.269 11.867,341.904 12.000,340.134 12.000 C 338.396 12.000,337.930 12.163,337.271 13.000 C 336.636 13.808,336.131 14.000,334.642 14.000 C 333.629 14.000,332.800 14.160,332.800 14.356 C 332.800 14.552,332.170 14.822,331.400 14.956 C 330.630 15.090,329.370 15.310,328.600 15.444 C 327.788 15.585,327.200 15.921,327.200 16.244 C 327.200 16.567,326.791 16.800,326.224 16.800 C 325.687 16.800,325.136 16.980,325.000 17.200 C 324.864 17.420,323.858 17.600,322.764 17.600 C 321.365 17.600,320.707 17.778,320.545 18.200 C 320.406 18.560,319.803 18.800,319.037 18.800 C 317.694 18.800,315.608 19.589,315.603 20.100 C 315.601 20.265,314.983 20.400,314.229 20.400 C 313.474 20.400,312.587 20.670,312.257 21.000 C 311.927 21.330,311.284 21.600,310.829 21.600 C 310.373 21.600,310.000 21.780,310.000 22.000 C 310.000 22.220,309.370 22.400,308.600 22.400 C 307.830 22.400,307.200 22.580,307.200 22.800 C 307.200 23.020,306.834 23.200,306.387 23.200 C 305.941 23.200,305.471 23.470,305.345 23.800 C 305.203 24.170,304.595 24.400,303.757 24.400 C 303.011 24.400,302.400 24.580,302.400 24.800 C 302.400 25.020,301.560 25.200,300.534 25.200 C 298.692 25.200,295.600 26.251,295.600 26.877 C 295.600 27.055,295.071 27.200,294.424 27.200 C 293.777 27.200,293.136 27.380,293.000 27.600 C 292.864 27.820,292.218 28.000,291.564 28.000 C 290.876 28.000,290.278 28.253,290.145 28.600 C 289.988 29.007,289.350 29.200,288.157 29.200 C 287.191 29.200,286.400 29.380,286.400 29.600 C 286.400 29.820,286.130 30.000,285.800 30.000 C 285.470 30.000,285.200 30.180,285.200 30.400 C 285.200 30.620,284.345 30.803,283.300 30.806 C 281.216 30.813,280.672 31.046,280.283 32.100 C 280.073 32.669,279.536 32.800,277.413 32.800 C 275.821 32.800,274.800 32.968,274.800 33.229 C 274.800 34.189,273.590 34.800,271.685 34.800 C 270.047 34.800,269.584 34.970,268.961 35.800 C 268.347 36.617,267.868 36.800,266.338 36.800 C 265.216 36.800,264.401 36.996,264.303 37.290 C 264.208 37.577,263.583 37.738,262.799 37.679 C 261.473 37.578,259.059 38.457,258.593 39.211 C 258.461 39.425,257.444 39.600,256.334 39.600 C 254.657 39.600,254.182 39.769,253.529 40.600 C 252.901 41.398,252.384 41.600,250.971 41.600 C 249.997 41.600,249.200 41.760,249.200 41.956 C 249.200 42.152,248.615 42.412,247.900 42.534 C 243.886 43.218,242.834 43.537,241.986 44.327 C 241.267 44.997,240.555 45.200,238.925 45.200 C 237.756 45.200,236.800 45.380,236.800 45.600 C 236.800 46.427,230.451 46.079,229.508 45.200 C 228.758 44.502,228.086 44.398,224.225 44.387 C 220.969 44.378,219.595 44.219,219.024 43.787 C 217.848 42.898,183.947 42.910,183.057 43.800 C 182.593 44.264,181.408 44.400,177.812 44.400 C 173.789 44.400,173.056 44.503,172.345 45.166 C 171.661 45.802,170.785 45.954,167.146 46.066 C 164.319 46.152,162.665 46.369,162.475 46.677 C 162.313 46.940,161.105 47.210,159.790 47.277 C 157.757 47.382,157.341 47.535,157.005 48.300 C 156.643 49.126,156.346 49.200,153.393 49.200 C 150.635 49.200,150.094 49.314,149.600 50.000 C 149.171 50.596,148.560 50.801,147.212 50.805 C 144.720 50.813,143.669 51.153,143.386 52.043 C 143.193 52.652,142.757 52.800,141.154 52.800 C 139.543 52.800,138.985 52.991,138.235 53.800 C 137.686 54.392,136.867 54.800,136.226 54.800 C 135.125 54.800,134.000 55.594,134.000 56.371 C 134.000 56.607,133.280 56.800,132.400 56.800 C 131.520 56.800,130.800 56.978,130.800 57.195 C 130.800 57.413,130.091 57.704,129.225 57.842 C 128.358 57.981,127.286 58.433,126.842 58.847 C 126.397 59.261,125.732 59.600,125.363 59.600 C 124.994 59.600,124.275 60.050,123.765 60.600 C 123.089 61.329,122.426 61.600,121.315 61.600 C 120.226 61.600,119.650 61.828,119.293 62.400 C 119.018 62.840,118.485 63.200,118.109 63.200 C 117.733 63.200,117.049 63.638,116.589 64.173 C 115.984 64.877,115.261 65.182,113.976 65.273 C 112.485 65.380,112.179 65.544,112.072 66.300 C 111.975 66.988,111.681 67.200,110.828 67.200 C 110.105 67.200,109.448 67.552,108.961 68.200 C 108.547 68.751,107.804 69.200,107.305 69.200 C 106.807 69.200,106.400 69.436,106.400 69.725 C 106.400 70.376,104.258 72.000,103.399 72.000 C 103.050 72.000,102.280 72.450,101.687 73.000 C 101.093 73.550,100.426 74.006,100.204 74.013 C 99.742 74.027,97.600 75.834,97.600 76.209 C 97.600 76.857,96.333 77.600,95.229 77.600 C 94.403 77.600,94.000 77.797,94.000 78.200 C 94.000 78.530,93.807 78.800,93.571 78.800 C 92.866 78.800,92.000 79.886,92.000 80.771 C 92.000 81.389,91.745 81.600,91.000 81.600 C 90.296 81.600,90.000 81.818,90.000 82.335 C 90.000 82.901,89.672 83.083,88.578 83.124 C 87.214 83.175,84.400 85.199,84.400 86.128 C 84.400 86.322,83.770 87.110,83.000 87.880 C 82.230 88.650,81.600 89.421,81.600 89.593 C 81.600 89.766,81.227 90.004,80.770 90.124 C 80.314 90.243,79.843 90.714,79.724 91.170 C 79.602 91.636,79.179 92.000,78.761 92.000 C 78.299 92.000,77.920 92.381,77.764 93.000 C 77.626 93.550,77.308 94.002,77.057 94.004 C 76.468 94.010,74.000 96.543,74.000 97.143 C 74.000 97.394,73.759 97.600,73.464 97.600 C 73.170 97.600,72.262 98.320,71.448 99.200 C 70.634 100.080,69.795 100.800,69.584 100.800 C 69.373 100.800,69.200 101.147,69.200 101.572 C 69.200 102.068,68.878 102.390,68.300 102.472 C 67.722 102.554,67.354 102.922,67.272 103.500 C 67.180 104.151,66.876 104.400,66.172 104.400 C 65.290 104.400,65.200 104.563,65.200 106.153 C 65.200 107.591,65.051 107.946,64.370 108.124 C 63.914 108.243,63.443 108.714,63.324 109.170 C 63.201 109.639,62.779 110.000,62.353 110.000 C 61.841 110.000,61.600 110.285,61.600 110.890 C 61.600 111.384,61.015 112.318,60.284 112.990 C 58.849 114.308,57.600 116.100,57.600 116.839 C 57.600 117.095,56.970 117.900,56.200 118.626 C 55.205 119.564,54.800 120.293,54.800 121.145 C 54.800 122.084,54.605 122.372,53.900 122.472 C 53.216 122.569,52.971 122.904,52.877 123.868 C 52.809 124.566,52.356 125.556,51.869 126.068 C 51.381 126.581,50.731 127.495,50.424 128.100 C 50.116 128.705,49.715 129.200,49.532 129.200 C 49.350 129.200,49.200 129.631,49.200 130.157 C 49.200 130.684,48.930 131.218,48.600 131.345 C 48.270 131.471,48.000 131.997,48.000 132.512 C 48.000 133.027,47.685 133.809,47.300 134.248 C 46.366 135.314,45.200 137.527,45.200 138.232 C 45.200 138.545,45.020 138.800,44.800 138.800 C 44.580 138.800,44.400 139.430,44.400 140.200 C 44.400 141.052,44.204 141.601,43.900 141.603 C 43.333 141.607,42.400 143.395,42.400 144.480 C 42.400 144.876,42.220 145.200,42.000 145.200 C 41.780 145.200,41.600 145.631,41.600 146.157 C 41.600 146.684,41.330 147.218,41.000 147.345 C 40.670 147.471,40.400 147.941,40.400 148.387 C 40.400 148.834,40.220 149.200,40.000 149.200 C 39.780 149.200,39.600 149.639,39.600 150.176 C 39.600 150.713,39.420 151.264,39.200 151.400 C 38.980 151.536,38.800 151.984,38.800 152.395 C 38.800 152.806,38.530 153.413,38.200 153.743 C 37.870 154.073,37.600 154.898,37.600 155.577 C 37.600 156.889,36.925 158.392,36.100 158.920 C 35.825 159.096,35.599 159.726,35.599 160.320 C 35.598 160.914,35.238 161.989,34.799 162.710 C 34.263 163.588,34.000 164.725,34.000 166.161 C 34.000 167.576,33.797 168.471,33.400 168.800 C 33.070 169.074,32.800 169.625,32.800 170.025 C 32.800 170.425,32.620 170.864,32.400 171.000 C 32.180 171.136,32.000 172.398,32.000 173.804 C 32.000 175.412,31.814 176.479,31.500 176.680 C 30.454 177.349,30.000 178.890,30.000 181.771 C 30.000 183.411,29.820 184.864,29.600 185.000 C 29.380 185.136,29.200 186.317,29.200 187.624 C 29.200 189.469,29.066 190.000,28.600 190.000 C 28.203 190.000,28.000 190.397,28.000 191.176 C 28.000 191.823,27.820 192.464,27.600 192.600 C 27.340 192.760,27.200 201.330,27.200 217.000 C 27.200 232.670,27.340 241.240,27.600 241.400 C 27.820 241.536,28.000 242.267,28.000 243.024 C 28.000 243.980,28.183 244.400,28.600 244.400 C 29.071 244.400,29.200 244.953,29.200 246.976 C 29.200 248.393,29.380 249.664,29.600 249.800 C 29.820 249.936,30.000 251.196,30.000 252.600 C 30.000 254.004,30.180 255.264,30.400 255.400 C 30.620 255.536,30.800 256.002,30.800 256.436 C 30.800 256.870,31.070 257.329,31.400 257.455 C 31.853 257.629,32.000 258.361,32.000 260.443 C 32.000 262.014,32.172 263.200,32.400 263.200 C 32.620 263.200,32.800 263.628,32.800 264.151 C 32.800 264.674,33.070 265.326,33.400 265.600 C 33.809 265.939,34.000 266.847,34.000 268.449 C 34.000 269.750,34.179 270.800,34.400 270.800 C 34.620 270.800,34.800 271.149,34.800 271.576 C 34.800 272.003,34.980 272.464,35.200 272.600 C 35.420 272.736,35.600 273.467,35.600 274.224 C 35.600 275.180,35.783 275.600,36.200 275.600 C 36.530 275.600,36.800 275.949,36.800 276.376 C 36.800 276.803,36.980 277.264,37.200 277.400 C 37.420 277.536,37.600 278.267,37.600 279.024 C 37.600 279.781,37.735 280.401,37.900 280.403 C 38.454 280.407,39.600 282.853,39.600 284.032 C 39.600 284.675,39.780 285.200,40.000 285.200 C 40.220 285.200,40.400 285.448,40.400 285.751 C 40.400 286.054,40.670 286.526,41.000 286.800 C 41.330 287.074,41.600 287.726,41.600 288.249 C 41.600 288.772,41.780 289.200,42.000 289.200 C 42.220 289.200,42.400 289.549,42.400 289.976 C 42.400 290.403,42.580 290.864,42.800 291.000 C 43.020 291.136,43.200 291.597,43.200 292.024 C 43.200 292.451,43.470 292.800,43.800 292.800 C 44.173 292.800,44.400 293.178,44.400 293.800 C 44.400 294.350,44.580 294.800,44.800 294.800 C 45.020 294.800,45.200 295.250,45.200 295.800 C 45.200 296.350,45.345 296.800,45.523 296.800 C 45.840 296.800,47.200 299.554,47.200 300.197 C 47.200 300.377,47.650 301.114,48.200 301.836 C 48.750 302.557,49.200 303.569,49.200 304.085 C 49.200 304.601,49.560 305.283,50.000 305.600 C 50.440 305.917,50.800 306.587,50.800 307.088 C 50.800 307.590,51.005 308.000,51.256 308.000 C 51.931 308.000,52.773 309.270,52.787 310.309 C 52.795 310.882,53.169 311.385,53.800 311.673 C 54.485 311.985,54.804 312.455,54.813 313.164 C 54.827 314.311,55.637 315.600,56.344 315.600 C 56.595 315.600,56.800 315.870,56.800 316.200 C 56.800 316.530,56.980 316.800,57.200 316.800 C 57.420 316.800,57.600 317.094,57.600 317.454 C 57.600 317.814,58.050 318.525,58.600 319.035 C 59.150 319.545,59.600 320.142,59.600 320.362 C 59.600 320.582,60.230 321.373,61.000 322.121 C 61.770 322.869,62.400 323.688,62.400 323.940 C 62.400 324.193,62.580 324.400,62.800 324.400 C 63.020 324.400,63.200 324.684,63.200 325.031 C 63.200 325.378,63.695 326.168,64.300 326.788 C 64.905 327.407,65.760 328.413,66.200 329.023 C 66.640 329.633,67.225 330.359,67.500 330.637 C 67.775 330.915,68.000 331.336,68.000 331.571 C 68.000 331.807,68.270 332.000,68.600 332.000 C 68.930 332.000,69.200 332.144,69.200 332.319 C 69.200 332.495,69.824 333.260,70.587 334.019 C 71.350 334.779,71.980 335.622,71.987 335.892 C 71.994 336.163,72.450 336.498,73.000 336.636 C 73.626 336.793,74.000 337.170,74.000 337.643 C 74.000 338.119,74.281 338.400,74.757 338.400 C 75.230 338.400,75.607 338.774,75.764 339.400 C 75.922 340.030,76.298 340.400,76.780 340.400 C 77.268 340.400,77.591 340.725,77.672 341.300 C 77.754 341.878,78.122 342.246,78.700 342.328 C 79.275 342.409,79.600 342.732,79.600 343.220 C 79.600 343.702,79.970 344.078,80.600 344.236 C 81.226 344.393,81.600 344.770,81.600 345.243 C 81.600 345.733,81.882 346.000,82.400 346.000 C 82.844 346.000,83.200 346.267,83.200 346.600 C 83.200 346.930,83.335 347.201,83.500 347.202 C 83.665 347.203,84.654 348.013,85.699 349.002 C 86.743 349.991,87.887 350.800,88.241 350.800 C 88.595 350.800,89.239 351.250,89.671 351.800 C 90.104 352.350,90.805 352.800,91.229 352.800 C 91.785 352.800,92.000 353.079,92.000 353.800 C 92.000 354.600,92.200 354.800,93.000 354.800 C 93.714 354.800,94.000 355.016,94.000 355.557 C 94.000 356.331,94.734 356.800,95.944 356.800 C 96.318 356.800,96.883 357.160,97.200 357.600 C 97.517 358.040,98.007 358.400,98.288 358.400 C 98.570 358.400,98.800 358.593,98.800 358.829 C 98.800 359.641,99.946 360.400,101.171 360.400 C 101.847 360.400,102.400 360.593,102.400 360.829 C 102.400 361.382,103.418 362.400,103.971 362.400 C 104.207 362.400,104.400 362.580,104.400 362.800 C 104.400 363.020,104.757 363.200,105.192 363.200 C 105.704 363.200,106.074 363.554,106.236 364.200 C 106.437 365.002,106.736 365.200,107.749 365.200 C 108.673 365.200,109.116 365.440,109.405 366.100 C 109.623 366.597,110.235 367.061,110.772 367.137 C 111.306 367.213,112.084 367.708,112.501 368.237 C 112.971 368.836,113.673 369.200,114.354 369.200 C 114.956 369.200,115.836 369.560,116.308 370.000 C 116.780 370.440,117.714 370.800,118.383 370.800 C 119.052 370.800,119.600 371.005,119.600 371.256 C 119.600 371.978,120.899 372.773,122.100 372.787 C 122.705 372.794,123.200 372.980,123.200 373.200 C 123.200 373.420,123.451 373.600,123.757 373.600 C 124.064 373.600,124.418 373.870,124.545 374.200 C 124.671 374.530,125.130 374.800,125.564 374.800 C 125.998 374.800,126.464 374.980,126.600 375.200 C 126.736 375.420,127.197 375.600,127.624 375.600 C 128.051 375.600,128.400 375.780,128.400 376.000 C 128.400 376.220,128.747 376.400,129.171 376.400 C 129.596 376.400,130.213 376.670,130.543 377.000 C 130.873 377.330,131.709 377.600,132.400 377.600 C 133.650 377.600,134.800 378.353,134.800 379.171 C 134.800 379.407,135.396 379.600,136.125 379.600 C 136.929 379.600,137.813 379.939,138.376 380.464 C 138.970 381.017,140.006 381.395,141.260 381.515 C 142.336 381.619,143.314 381.860,143.432 382.052 C 143.550 382.243,143.997 382.400,144.424 382.400 C 144.851 382.400,145.200 382.580,145.200 382.800 C 145.200 383.022,146.267 383.200,147.600 383.200 C 149.467 383.200,150.000 383.333,150.000 383.800 C 150.000 384.130,150.270 384.400,150.600 384.400 C 150.930 384.400,151.200 384.580,151.200 384.800 C 151.200 385.026,152.339 385.200,153.817 385.200 C 156.055 385.200,156.591 385.345,157.513 386.200 C 158.350 386.976,159.019 387.200,160.496 387.200 C 161.543 387.200,162.400 387.380,162.400 387.600 C 162.400 387.837,163.847 388.000,165.942 388.000 C 169.165 388.000,169.580 388.090,170.562 389.000 C 171.601 389.963,171.839 390.000,176.997 390.000 C 180.136 390.000,182.455 390.166,182.600 390.400 C 182.740 390.627,184.730 390.800,187.200 390.800 C 189.670 390.800,191.660 390.973,191.800 391.200 C 192.122 391.721,196.678 391.721,197.000 391.200 C 197.155 390.949,201.263 390.800,208.000 390.800 C 214.737 390.800,218.845 390.651,219.000 390.400 C 219.146 390.164,221.531 390.000,224.804 390.000 C 228.812 390.000,230.449 389.861,230.680 389.500 C 231.364 388.430,232.889 388.000,235.995 388.000 C 237.865 388.000,239.200 387.833,239.200 387.600 C 239.200 387.380,240.196 387.200,241.413 387.200 C 243.010 387.200,243.689 387.033,243.855 386.600 C 243.982 386.270,244.516 386.000,245.043 386.000 C 245.569 386.000,246.000 385.820,246.000 385.600 C 246.000 385.380,247.014 385.200,248.254 385.200 C 250.145 385.200,250.658 385.039,251.435 384.200 C 252.240 383.331,252.703 383.200,254.958 383.200 C 257.031 383.200,257.660 383.051,258.077 382.459 C 258.432 381.956,259.275 381.653,260.702 381.517 C 262.183 381.376,263.025 381.063,263.549 380.458 C 264.001 379.938,264.765 379.600,265.491 379.600 C 266.301 379.600,266.931 379.277,267.439 378.600 C 267.971 377.891,268.570 377.600,269.495 377.600 C 270.213 377.600,270.800 377.420,270.800 377.200 C 270.800 376.980,270.979 376.800,271.197 376.800 C 271.880 376.800,274.800 375.427,274.800 375.106 C 274.800 374.938,275.242 374.800,275.782 374.800 C 276.322 374.800,277.214 374.350,277.764 373.800 C 278.392 373.171,279.216 372.800,279.982 372.800 C 280.652 372.800,281.200 372.620,281.200 372.400 C 281.200 372.180,281.470 372.000,281.800 372.000 C 282.130 372.000,282.400 371.730,282.400 371.400 C 282.400 370.981,282.822 370.800,283.797 370.800 C 284.760 370.800,285.348 370.552,285.693 370.000 C 286.019 369.478,286.626 369.200,287.440 369.200 C 288.304 369.200,288.919 368.892,289.439 368.200 C 289.852 367.650,290.456 367.200,290.782 367.200 C 291.108 367.200,291.746 366.768,292.200 366.239 C 292.654 365.711,293.470 365.216,294.013 365.139 C 294.564 365.061,295.174 364.603,295.395 364.100 C 295.612 363.605,296.122 363.200,296.528 363.200 C 296.934 363.200,297.879 362.570,298.626 361.800 C 299.449 360.952,300.372 360.400,300.964 360.400 C 301.531 360.400,302.273 359.980,302.729 359.400 C 303.161 358.850,303.648 358.400,303.811 358.400 C 303.973 358.400,304.403 358.058,304.766 357.639 C 305.129 357.221,305.870 356.816,306.413 356.739 C 306.958 356.662,307.574 356.204,307.788 355.716 C 308.001 355.230,308.541 354.780,308.988 354.716 C 309.466 354.648,309.850 354.246,309.922 353.741 C 309.990 353.268,310.408 352.787,310.852 352.670 C 311.296 352.554,311.757 352.086,311.876 351.630 C 312.034 351.028,312.416 350.800,313.266 350.800 C 314.436 350.800,318.400 347.418,318.400 346.419 C 318.400 346.189,318.588 346.000,318.818 346.000 C 319.361 346.000,321.200 344.161,321.200 343.618 C 321.200 343.388,321.378 343.200,321.595 343.200 C 322.117 343.200,326.000 339.326,326.000 338.805 C 326.000 338.582,326.193 338.400,326.428 338.400 C 326.808 338.400,329.365 335.794,331.293 333.444 C 331.674 332.980,332.169 332.383,332.393 332.117 C 332.617 331.851,332.800 331.523,332.800 331.388 C 332.800 330.982,333.912 330.000,334.371 330.000 C 334.607 330.000,334.800 329.865,334.800 329.700 C 334.801 329.535,335.251 328.877,335.800 328.238 C 336.350 327.599,336.800 326.855,336.800 326.584 C 336.800 326.314,337.160 325.999,337.600 325.884 C 338.040 325.769,338.400 325.388,338.400 325.037 C 338.400 324.687,338.572 324.400,338.781 324.400 C 338.991 324.400,339.482 323.725,339.873 322.900 C 340.263 322.075,341.037 320.927,341.591 320.349 C 343.593 318.262,344.400 317.118,344.400 316.366 C 344.400 315.945,344.550 315.600,344.732 315.600 C 344.915 315.600,345.306 315.150,345.600 314.600 C 345.894 314.050,346.375 313.600,346.668 313.600 C 346.960 313.600,347.200 313.240,347.200 312.800 C 347.200 312.360,347.380 312.000,347.600 312.000 C 347.820 312.000,348.000 311.730,348.000 311.400 C 348.000 311.070,348.270 310.800,348.600 310.800 C 348.973 310.800,349.200 310.423,349.200 309.803 C 349.200 309.240,349.548 308.590,350.000 308.307 C 350.528 307.977,350.800 307.374,350.800 306.532 C 350.800 305.513,350.981 305.230,351.700 305.128 C 352.431 305.024,352.624 304.706,352.728 303.436 C 352.816 302.355,353.157 301.635,353.828 301.107 C 354.380 300.672,354.800 299.923,354.800 299.371 C 354.800 298.837,354.980 298.400,355.200 298.400 C 355.420 298.400,355.603 298.175,355.607 297.900 C 355.611 297.625,356.061 296.976,356.607 296.458 C 357.190 295.905,357.600 295.067,357.600 294.428 C 357.600 293.784,358.009 292.956,358.600 292.400 C 359.209 291.828,359.600 291.019,359.600 290.330 C 359.600 289.709,359.780 289.200,360.000 289.200 C 360.220 289.200,360.400 288.930,360.400 288.600 C 360.400 288.270,360.580 288.000,360.800 288.000 C 361.020 288.000,361.200 287.482,361.200 286.849 C 361.200 286.216,361.470 285.474,361.800 285.200 C 362.130 284.926,362.406 284.049,362.413 283.251 C 362.426 281.748,363.150 280.400,363.944 280.400 C 364.195 280.400,364.404 279.815,364.409 279.100 C 364.414 278.385,364.770 277.350,365.200 276.800 C 365.738 276.112,365.985 275.167,365.991 273.768 C 365.999 272.014,366.137 271.662,367.000 271.200 C 367.917 270.709,368.000 270.438,368.000 267.932 C 368.000 266.154,368.159 265.200,368.456 265.200 C 369.479 265.200,369.975 263.743,369.987 260.700 C 369.995 258.908,370.169 257.600,370.400 257.600 C 370.620 257.600,370.800 257.349,370.800 257.043 C 370.800 256.736,371.070 256.382,371.400 256.255 C 371.859 256.079,372.000 255.324,372.000 253.036 C 372.000 251.392,372.180 249.936,372.400 249.800 C 372.620 249.664,372.800 248.471,372.800 247.148 C 372.800 245.521,372.998 244.545,373.413 244.130 C 374.243 243.300,374.132 190.377,373.300 190.100 C 373.018 190.006,372.800 189.277,372.800 188.428 C 372.800 186.853,371.808 184.400,371.171 184.400 C 370.967 184.400,370.800 182.791,370.800 180.824 C 370.800 178.857,370.639 177.148,370.442 177.026 C 370.245 176.905,369.985 176.129,369.863 175.303 C 369.196 170.793,368.878 169.426,368.462 169.287 C 368.182 169.194,368.000 168.199,368.000 166.767 C 368.000 165.456,367.822 164.400,367.600 164.400 C 367.380 164.400,367.200 164.130,367.200 163.800 C 367.200 163.470,366.930 163.200,366.600 163.200 C 366.139 163.200,366.000 162.689,366.000 161.000 C 366.000 159.790,365.820 158.800,365.600 158.800 C 365.380 158.800,365.200 158.530,365.200 158.200 C 365.200 157.870,365.020 157.600,364.800 157.600 C 364.580 157.600,364.400 156.790,364.400 155.800 C 364.400 154.467,364.244 154.000,363.800 154.000 C 363.403 154.000,363.200 153.603,363.200 152.824 C 363.200 152.177,363.020 151.536,362.800 151.400 C 362.580 151.264,362.400 150.713,362.400 150.176 C 362.400 149.639,362.243 149.200,362.052 149.200 C 361.860 149.200,361.584 148.300,361.438 147.200 C 361.224 145.591,361.023 145.200,360.409 145.200 C 359.797 145.200,359.622 144.863,359.523 143.500 C 359.421 142.087,359.248 141.778,358.500 141.672 C 357.766 141.568,357.600 141.291,357.600 140.172 C 357.600 139.417,357.420 138.800,357.200 138.800 C 356.980 138.800,356.800 138.608,356.800 138.373 C 356.800 138.139,356.374 137.374,355.853 136.673 C 355.331 135.973,354.791 134.917,354.652 134.327 C 354.512 133.736,354.039 133.139,353.599 133.000 C 352.805 132.748,352.800 132.371,352.800 71.142 L 352.800 9.538 351.631 8.369 C 350.404 7.142,349.070 6.855,348.524 7.700 M216.000 77.191 C 222.928 77.964,233.323 80.095,239.400 81.989 C 240.940 82.469,243.190 83.132,244.400 83.462 C 245.610 83.793,247.332 84.409,248.226 84.831 C 249.121 85.254,250.021 85.601,250.226 85.601 C 250.722 85.603,255.700 87.639,259.091 89.227 C 260.581 89.925,262.430 90.764,263.200 91.092 C 267.226 92.807,281.849 101.983,286.456 105.687 C 305.993 121.389,319.872 139.122,329.279 160.400 C 329.814 161.610,330.670 163.500,331.181 164.600 C 331.692 165.700,332.253 167.140,332.428 167.800 C 332.603 168.460,333.225 170.260,333.810 171.800 C 335.635 176.600,338.353 187.545,339.770 195.800 C 343.877 219.731,339.368 253.824,329.428 274.000 C 329.157 274.550,328.238 276.440,327.386 278.200 C 324.314 284.543,320.618 290.809,315.706 298.000 C 310.559 305.537,297.076 320.174,290.600 325.256 C 277.380 335.630,267.577 341.661,256.600 346.174 C 254.620 346.988,252.409 347.912,251.686 348.227 C 250.964 348.542,250.102 348.800,249.770 348.800 C 249.439 348.800,248.492 349.145,247.665 349.567 C 246.839 349.988,245.451 350.465,244.581 350.627 C 243.712 350.789,242.640 351.146,242.200 351.421 C 241.760 351.696,240.770 352.038,240.000 352.180 C 239.230 352.323,236.980 352.864,235.000 353.383 C 227.438 355.365,225.943 355.620,212.600 357.212 C 208.488 357.703,193.044 357.689,189.400 357.192 C 187.860 356.981,184.710 356.615,182.400 356.377 C 177.862 355.910,174.980 355.338,163.600 352.652 C 162.170 352.314,159.200 351.388,157.000 350.594 C 154.800 349.799,152.280 348.912,151.400 348.621 C 149.870 348.116,147.510 347.179,145.800 346.399 C 130.945 339.623,119.842 332.753,110.574 324.600 C 110.073 324.160,109.245 323.450,108.732 323.023 C 105.775 320.559,100.275 315.023,94.007 308.200 C 79.461 292.367,66.477 264.555,62.262 240.200 C 59.470 224.066,60.323 199.147,64.158 184.800 C 64.717 182.710,65.288 180.550,65.427 180.000 C 66.132 177.209,68.545 169.752,68.850 169.420 C 69.043 169.211,69.200 168.802,69.200 168.511 C 69.200 166.069,78.463 147.399,82.949 140.800 C 101.950 112.846,129.221 91.801,156.800 83.808 C 157.790 83.521,159.050 83.087,159.600 82.844 C 160.602 82.402,161.296 82.219,170.200 80.064 C 177.476 78.303,184.438 77.268,193.200 76.645 C 196.659 76.399,212.241 76.772,216.000 77.191 M166.734 141.177 C 163.626 141.783,161.600 144.373,161.600 147.740 C 161.600 150.998,161.238 151.155,153.400 151.286 L 146.600 151.400 145.000 152.600 C 139.542 156.692,140.000 151.156,140.000 213.064 C 140.000 274.937,139.526 269.601,145.371 273.541 L 146.942 274.600 200.971 274.600 L 255.000 274.600 256.867 273.482 C 257.893 272.866,259.168 271.786,259.700 271.082 C 261.911 268.151,261.791 271.289,261.911 213.237 C 262.036 152.730,262.246 157.035,259.024 154.065 C 255.975 151.254,255.427 151.103,248.088 151.049 C 240.506 150.992,240.670 151.073,240.226 147.151 C 239.885 144.130,237.987 141.786,235.400 141.189 C 233.534 140.758,168.944 140.747,166.734 141.177 M235.226 145.614 C 236.421 146.254,236.331 149.769,235.100 150.558 C 234.199 151.136,168.983 151.506,167.077 150.944 C 165.395 150.449,165.288 146.469,166.936 145.672 C 168.132 145.094,234.149 145.037,235.226 145.614 M221.600 155.949 C 227.932 156.059,230.140 163.542,224.699 166.454 C 223.230 167.241,178.208 167.028,176.989 166.229 C 172.239 163.117,173.889 156.418,179.508 156.000 C 181.807 155.829,212.536 155.792,221.600 155.949 M198.577 172.889 C 199.126 173.672,199.200 176.944,199.200 200.307 L 199.200 226.836 198.218 227.818 L 197.236 228.800 175.318 228.796 L 153.400 228.792 151.339 227.833 C 150.017 227.217,148.906 226.325,148.239 225.344 L 147.200 223.814 147.200 200.891 C 147.200 168.865,144.031 172.055,175.877 172.022 L 197.955 172.000 198.577 172.889 M250.154 172.750 C 251.593 173.257,252.436 173.892,253.354 175.160 L 254.600 176.882 254.500 200.665 L 254.399 224.448 253.189 225.954 C 250.924 228.772,250.661 228.800,226.127 228.800 C 204.674 228.800,204.519 228.794,203.762 227.958 C 202.660 226.741,202.353 174.655,203.438 172.999 L 204.092 172.000 226.146 172.031 C 245.930 172.059,248.401 172.133,250.154 172.750 M164.205 244.941 C 168.880 247.118,171.138 253.417,168.851 257.899 C 164.246 266.927,150.400 263.817,150.400 253.754 C 150.400 246.729,157.842 241.979,164.205 244.941 M245.427 244.900 C 255.517 248.944,251.938 263.688,241.000 263.136 C 229.311 262.546,229.780 244.000,241.485 244.000 C 242.418 244.000,244.192 244.405,245.427 244.900 M150.646 281.025 C 150.277 281.985,150.368 286.777,150.788 288.600 C 151.555 291.922,152.689 292.400,159.800 292.400 L 165.987 292.400 167.294 291.234 L 168.600 290.067 168.600 285.334 L 168.600 280.600 159.746 280.492 C 151.933 280.398,150.862 280.460,150.646 281.025 M233.443 281.033 C 232.314 283.975,233.406 290.677,235.186 291.728 C 236.856 292.715,247.854 292.776,249.333 291.807 C 251.223 290.569,252.296 282.802,250.822 281.026 C 250.037 280.081,233.806 280.087,233.443 281.033 " stroke="none" fill="#0665e8" fill-rule="evenodd"></path><path id="path1" d="M193.200 76.645 C 184.438 77.268,177.476 78.303,170.200 80.064 C 161.296 82.219,160.602 82.402,159.600 82.844 C 159.050 83.087,157.790 83.521,156.800 83.808 C 129.221 91.801,101.950 112.846,82.949 140.800 C 78.463 147.399,69.200 166.069,69.200 168.511 C 69.200 168.802,69.043 169.211,68.850 169.420 C 68.545 169.752,66.132 177.209,65.427 180.000 C 65.288 180.550,64.717 182.710,64.158 184.800 C 60.323 199.147,59.470 224.066,62.262 240.200 C 66.477 264.555,79.461 292.367,94.007 308.200 C 100.275 315.023,105.775 320.559,108.732 323.023 C 109.245 323.450,110.073 324.160,110.574 324.600 C 119.842 332.753,130.945 339.623,145.800 346.399 C 147.510 347.179,149.870 348.116,151.400 348.621 C 152.280 348.912,154.800 349.799,157.000 350.594 C 159.200 351.388,162.170 352.314,163.600 352.652 C 174.980 355.338,177.862 355.910,182.400 356.377 C 184.710 356.615,187.860 356.981,189.400 357.192 C 193.044 357.689,208.488 357.703,212.600 357.212 C 225.943 355.620,227.438 355.365,235.000 353.383 C 236.980 352.864,239.230 352.323,240.000 352.180 C 240.770 352.038,241.760 351.696,242.200 351.421 C 242.640 351.146,243.712 350.789,244.581 350.627 C 245.451 350.465,246.839 349.988,247.665 349.567 C 248.492 349.145,249.439 348.800,249.770 348.800 C 250.102 348.800,250.964 348.542,251.686 348.227 C 252.409 347.912,254.620 346.988,256.600 346.174 C 267.577 341.661,277.380 335.630,290.600 325.256 C 297.076 320.174,310.559 305.537,315.706 298.000 C 320.618 290.809,324.314 284.543,327.386 278.200 C 328.238 276.440,329.157 274.550,329.428 274.000 C 339.368 253.824,343.877 219.731,339.770 195.800 C 338.353 187.545,335.635 176.600,333.810 171.800 C 333.225 170.260,332.603 168.460,332.428 167.800 C 332.253 167.140,331.692 165.700,331.181 164.600 C 330.670 163.500,329.814 161.610,329.279 160.400 C 319.872 139.122,305.993 121.389,286.456 105.687 C 281.849 101.983,267.226 92.807,263.200 91.092 C 262.430 90.764,260.581 89.925,259.091 89.227 C 255.700 87.639,250.722 85.603,250.226 85.601 C 250.021 85.601,249.121 85.254,248.226 84.831 C 247.332 84.409,245.610 83.793,244.400 83.462 C 243.190 83.132,240.940 82.469,239.400 81.989 C 226.442 77.951,206.790 75.678,193.200 76.645 M211.200 78.192 C 221.288 79.150,224.883 79.603,227.000 80.182 C 228.100 80.483,229.810 80.851,230.800 81.001 C 232.526 81.261,233.689 81.574,239.000 83.207 C 240.320 83.612,241.997 84.064,242.727 84.210 C 243.457 84.356,244.537 84.727,245.127 85.036 C 245.717 85.344,246.830 85.714,247.600 85.858 C 248.370 86.003,249.360 86.343,249.800 86.616 C 250.240 86.888,251.320 87.334,252.200 87.608 C 253.080 87.881,253.996 88.258,254.235 88.447 C 254.474 88.635,255.374 89.038,256.235 89.342 C 258.579 90.171,268.660 95.263,271.400 97.003 C 277.397 100.813,279.628 102.287,282.800 104.538 C 285.837 106.693,287.330 107.884,292.396 112.195 C 294.555 114.032,303.604 123.155,305.494 125.400 C 324.641 148.141,334.814 170.521,338.855 198.800 C 340.767 212.184,340.096 231.604,337.245 245.400 C 333.651 262.786,325.342 282.351,316.009 295.400 C 307.613 307.138,297.211 318.648,289.971 324.209 C 283.879 328.888,277.124 333.821,275.460 334.807 C 274.327 335.478,273.040 336.242,272.600 336.505 C 269.302 338.480,267.734 339.351,264.400 341.063 C 259.948 343.349,254.222 345.867,250.000 347.393 C 248.350 347.990,246.100 348.810,245.000 349.214 C 242.145 350.265,239.418 351.057,236.200 351.769 C 234.660 352.110,232.410 352.664,231.200 352.999 C 226.615 354.269,214.606 355.843,203.399 356.643 C 201.419 356.784,197.909 356.701,195.599 356.458 C 193.290 356.215,188.615 355.729,185.212 355.379 C 181.809 355.029,177.039 354.318,174.612 353.799 C 172.185 353.280,168.850 352.568,167.200 352.216 C 163.829 351.498,161.365 350.756,157.692 349.356 C 156.313 348.830,154.928 348.400,154.615 348.400 C 154.301 348.400,152.460 347.750,150.522 346.955 C 148.585 346.161,145.961 345.093,144.690 344.581 C 110.898 330.982,79.986 296.441,68.281 259.200 C 66.212 252.619,65.754 250.875,64.222 243.738 C 61.134 229.353,61.252 203.442,64.471 189.000 C 66.173 181.363,70.340 167.606,71.250 166.620 C 71.442 166.411,71.600 165.995,71.600 165.695 C 71.600 164.249,79.075 149.391,82.605 143.824 C 92.844 127.671,106.756 112.979,121.450 102.800 C 128.578 97.862,137.925 92.544,143.600 90.199 C 145.030 89.607,146.740 88.899,147.400 88.625 C 151.772 86.807,153.175 86.281,154.542 85.950 C 155.390 85.745,156.650 85.282,157.342 84.921 C 158.034 84.560,159.230 84.123,160.000 83.948 C 160.770 83.774,163.110 83.164,165.200 82.593 C 167.290 82.022,170.189 81.309,171.642 81.008 C 173.095 80.708,174.996 80.270,175.867 80.036 C 178.884 79.223,194.439 77.725,200.600 77.654 C 203.020 77.626,207.790 77.868,211.200 78.192 M164.183 140.745 C 161.923 142.123,160.908 143.746,160.593 146.481 C 160.230 149.638,160.328 149.587,154.767 149.594 C 146.310 149.605,142.478 151.365,139.942 156.400 L 138.834 158.600 138.817 213.113 L 138.800 267.627 139.774 269.549 C 140.803 271.580,142.416 273.199,145.022 274.819 C 147.016 276.058,156.705 276.316,201.400 276.319 C 241.459 276.321,254.969 276.016,256.724 275.069 C 259.007 273.837,261.254 271.505,262.246 269.338 L 263.200 267.251 263.200 212.561 L 263.200 157.870 262.187 156.142 C 259.156 150.969,256.057 149.600,247.384 149.600 C 241.784 149.600,241.898 149.663,241.392 146.289 C 241.053 144.024,239.889 142.161,238.031 140.910 L 236.682 140.000 201.041 140.001 C 167.031 140.003,165.344 140.037,164.183 140.745 M235.400 141.189 C 237.987 141.786,239.885 144.130,240.226 147.151 C 240.670 151.073,240.506 150.992,248.088 151.049 C 255.427 151.103,255.975 151.254,259.024 154.065 C 262.246 157.035,262.036 152.730,261.911 213.237 C 261.791 271.289,261.911 268.151,259.700 271.082 C 259.168 271.786,257.893 272.866,256.867 273.482 L 255.000 274.600 200.971 274.600 L 146.942 274.600 145.371 273.541 C 139.526 269.601,140.000 274.937,140.000 213.064 C 140.000 151.156,139.542 156.692,145.000 152.600 L 146.600 151.400 153.400 151.286 C 161.238 151.155,161.600 150.998,161.600 147.740 C 161.600 144.373,163.626 141.783,166.734 141.177 C 168.944 140.747,233.534 140.758,235.400 141.189 M166.936 145.672 C 165.288 146.469,165.395 150.449,167.077 150.944 C 168.983 151.506,234.199 151.136,235.100 150.558 C 236.331 149.769,236.421 146.254,235.226 145.614 C 234.149 145.037,168.132 145.094,166.936 145.672 M234.380 146.576 C 234.643 146.893,234.800 147.658,234.729 148.276 L 234.600 149.400 201.000 149.400 L 167.400 149.400 167.266 148.220 C 167.003 145.912,165.664 146.000,201.227 146.000 C 229.174 146.000,233.971 146.083,234.380 146.576 M179.508 156.000 C 173.889 156.418,172.239 163.117,176.989 166.229 C 178.208 167.028,223.230 167.241,224.699 166.454 C 230.140 163.542,227.932 156.059,221.600 155.949 C 212.536 155.792,181.807 155.829,179.508 156.000 M223.761 157.358 C 227.056 158.735,227.213 163.480,224.021 165.189 C 222.588 165.956,179.746 166.030,178.051 165.268 C 174.832 163.822,174.900 158.507,178.155 157.192 C 179.711 156.563,222.229 156.718,223.761 157.358 M152.140 172.722 C 147.056 174.797,147.200 173.979,147.200 200.891 L 147.200 223.814 148.239 225.344 C 148.906 226.325,150.017 227.217,151.339 227.833 L 153.400 228.792 175.318 228.796 L 197.236 228.800 198.218 227.818 L 199.200 226.836 199.200 200.307 C 199.200 176.944,199.126 173.672,198.577 172.889 L 197.955 172.000 175.877 172.022 C 156.081 172.042,153.628 172.115,152.140 172.722 M203.438 172.999 C 202.353 174.655,202.660 226.741,203.762 227.958 C 204.519 228.794,204.674 228.800,226.127 228.800 C 250.661 228.800,250.924 228.772,253.189 225.954 L 254.399 224.448 254.500 200.665 L 254.600 176.882 253.354 175.160 C 251.089 172.030,251.402 172.067,226.146 172.031 L 204.092 172.000 203.438 172.999 M197.376 173.960 C 197.721 174.519,197.800 226.153,197.456 226.709 C 197.222 227.088,192.045 227.200,174.836 227.200 L 152.518 227.200 151.159 226.292 C 148.289 224.375,148.375 225.216,148.494 200.129 C 148.613 174.922,148.401 176.675,151.596 174.500 L 152.918 173.600 175.036 173.600 C 187.730 173.600,197.248 173.754,197.376 173.960 M250.552 174.257 C 253.440 175.635,253.407 175.321,253.341 200.857 C 253.274 226.354,253.391 225.356,250.313 226.588 C 248.292 227.397,205.281 227.521,204.480 226.720 C 203.957 226.197,203.748 174.386,204.267 173.867 C 204.930 173.203,249.123 173.576,250.552 174.257 M156.197 244.941 C 149.679 247.976,148.330 256.397,153.635 260.937 C 159.782 266.199,169.492 262.045,169.732 254.053 C 169.948 246.880,162.622 241.948,156.197 244.941 M238.110 244.900 C 226.984 250.869,233.408 266.758,245.353 262.815 C 255.029 259.622,251.817 244.000,241.485 244.000 C 240.489 244.000,239.095 244.372,238.110 244.900 M162.635 245.651 C 166.766 246.691,169.917 253.526,167.886 257.041 C 165.139 261.795,160.860 263.317,156.200 261.197 C 146.975 257.000,152.708 243.151,162.635 245.651 M243.828 245.717 C 250.052 247.200,252.229 255.504,247.539 259.875 C 242.137 264.910,233.600 261.229,233.600 253.865 C 233.600 249.101,236.565 245.912,241.600 245.260 C 241.710 245.246,242.713 245.451,243.828 245.717 M149.590 279.900 C 148.785 280.921,148.743 281.274,149.005 284.800 C 149.594 292.705,151.054 294.000,159.375 294.000 C 168.623 294.000,170.381 292.515,170.393 284.700 C 170.403 278.452,171.037 278.800,159.629 278.800 L 150.458 278.800 149.590 279.900 M232.613 279.661 L 231.518 280.523 231.675 284.961 C 231.958 292.913,233.014 293.800,242.200 293.800 C 249.534 293.800,250.595 293.416,252.038 290.240 C 252.848 288.456,253.128 281.137,252.429 280.033 C 251.486 278.544,234.439 278.225,232.613 279.661 M168.600 285.334 L 168.600 290.067 167.294 291.234 L 165.987 292.400 159.800 292.400 C 151.432 292.400,150.435 291.544,150.410 284.333 C 150.394 280.048,149.613 280.369,159.746 280.492 L 168.600 280.600 168.600 285.334 M250.822 281.026 C 252.296 282.802,251.223 290.569,249.333 291.807 C 247.854 292.776,236.856 292.715,235.186 291.728 C 233.406 290.677,232.314 283.975,233.443 281.033 C 233.806 280.087,250.037 280.081,250.822 281.026 " stroke="none" fill="#8eb9f4" fill-rule="evenodd"></path><path id="path2" d="M190.800 78.219 C 181.601 79.096,177.512 79.593,175.867 80.036 C 174.996 80.270,173.095 80.708,171.642 81.008 C 170.189 81.309,167.290 82.022,165.200 82.593 C 163.110 83.164,160.770 83.774,160.000 83.948 C 159.230 84.123,158.034 84.560,157.342 84.921 C 156.650 85.282,155.390 85.745,154.542 85.950 C 153.175 86.281,151.772 86.807,147.400 88.625 C 146.740 88.899,145.030 89.607,143.600 90.199 C 137.925 92.544,128.578 97.862,121.450 102.800 C 106.756 112.979,92.844 127.671,82.605 143.824 C 79.075 149.391,71.600 164.249,71.600 165.695 C 71.600 165.995,71.442 166.411,71.250 166.620 C 70.340 167.606,66.173 181.363,64.471 189.000 C 61.252 203.442,61.134 229.353,64.222 243.738 C 65.754 250.875,66.212 252.619,68.281 259.200 C 77.215 287.624,94.757 311.746,120.145 330.520 C 126.192 334.991,138.780 342.203,144.690 344.581 C 145.961 345.093,148.585 346.161,150.522 346.955 C 152.460 347.750,154.301 348.400,154.615 348.400 C 154.928 348.400,156.313 348.830,157.692 349.356 C 161.365 350.756,163.829 351.498,167.200 352.216 C 168.850 352.568,172.185 353.280,174.612 353.799 C 177.039 354.318,181.809 355.029,185.212 355.379 C 188.615 355.729,193.290 356.215,195.599 356.458 C 197.909 356.701,201.419 356.784,203.399 356.643 C 214.606 355.843,226.615 354.269,231.200 352.999 C 232.410 352.664,234.660 352.110,236.200 351.769 C 239.418 351.057,242.145 350.265,245.000 349.214 C 246.100 348.810,248.350 347.990,250.000 347.393 C 254.222 345.867,259.948 343.349,264.400 341.063 C 267.734 339.351,269.302 338.480,272.600 336.505 C 273.040 336.242,274.327 335.478,275.460 334.807 C 277.124 333.821,283.879 328.888,289.971 324.209 C 297.211 318.648,307.613 307.138,316.009 295.400 C 322.795 285.911,329.921 271.170,333.701 258.800 C 344.552 223.292,341.594 187.874,324.965 154.207 C 320.314 144.790,314.182 135.718,305.494 125.400 C 303.604 123.155,294.555 114.032,292.396 112.195 C 287.330 107.884,285.837 106.693,282.800 104.538 C 279.628 102.287,277.397 100.813,271.400 97.003 C 268.660 95.263,258.579 90.171,256.235 89.342 C 255.374 89.038,254.474 88.635,254.235 88.447 C 253.996 88.258,253.080 87.881,252.200 87.608 C 251.320 87.334,250.240 86.888,249.800 86.616 C 249.360 86.343,248.370 86.003,247.600 85.858 C 246.830 85.714,245.717 85.344,245.127 85.036 C 244.537 84.727,243.457 84.356,242.727 84.210 C 241.997 84.064,240.320 83.612,239.000 83.207 C 233.689 81.574,232.526 81.261,230.800 81.001 C 229.810 80.851,228.100 80.483,227.000 80.182 C 219.844 78.225,201.299 77.219,190.800 78.219 M238.031 140.910 C 239.889 142.161,241.053 144.024,241.392 146.289 C 241.898 149.663,241.784 149.600,247.384 149.600 C 256.057 149.600,259.156 150.969,262.187 156.142 L 263.200 157.870 263.200 212.561 L 263.200 267.251 262.246 269.338 C 261.254 271.505,259.007 273.837,256.724 275.069 C 254.969 276.016,241.459 276.321,201.400 276.319 C 156.705 276.316,147.016 276.058,145.022 274.819 C 142.416 273.199,140.803 271.580,139.774 269.549 L 138.800 267.627 138.817 213.113 L 138.834 158.600 139.942 156.400 C 142.478 151.365,146.310 149.605,154.767 149.594 C 160.328 149.587,160.230 149.638,160.593 146.481 C 160.908 143.746,161.923 142.123,164.183 140.745 C 165.344 140.037,167.031 140.003,201.041 140.001 L 236.682 140.000 238.031 140.910 M167.842 146.520 C 167.369 146.865,167.176 147.434,167.266 148.220 L 167.400 149.400 201.000 149.400 L 234.600 149.400 234.729 148.276 C 235.005 145.871,236.900 146.000,201.227 146.000 C 175.058 146.000,168.411 146.103,167.842 146.520 M178.155 157.192 C 174.900 158.507,174.832 163.822,178.051 165.268 C 179.746 166.030,222.588 165.956,224.021 165.189 C 227.213 163.480,227.056 158.735,223.761 157.358 C 222.229 156.718,179.711 156.563,178.155 157.192 M151.596 174.500 C 148.401 176.675,148.613 174.922,148.494 200.129 C 148.375 225.216,148.289 224.375,151.159 226.292 L 152.518 227.200 174.836 227.200 C 192.045 227.200,197.222 227.088,197.456 226.709 C 197.800 226.153,197.721 174.519,197.376 173.960 C 197.248 173.754,187.730 173.600,175.036 173.600 L 152.918 173.600 151.596 174.500 M204.267 173.867 C 203.748 174.386,203.957 226.197,204.480 226.720 C 205.281 227.521,248.292 227.397,250.313 226.588 C 253.391 225.356,253.274 226.354,253.341 200.857 C 253.407 175.321,253.440 175.635,250.552 174.257 C 249.123 173.576,204.930 173.203,204.267 173.867 M157.566 245.748 C 150.347 248.328,149.479 258.139,156.200 261.197 C 160.143 262.990,163.650 262.277,166.330 259.137 C 171.827 252.694,165.438 242.934,157.566 245.748 M239.600 245.677 C 234.855 246.708,232.059 253.027,234.361 257.516 C 238.419 265.428,250.000 262.676,250.000 253.800 C 250.000 249.209,245.606 244.741,241.600 245.260 C 241.490 245.274,240.590 245.462,239.600 245.677 M169.600 279.600 C 170.841 280.841,170.768 288.319,169.492 290.600 C 166.553 295.853,152.050 295.513,149.904 290.141 C 148.757 287.270,148.571 281.193,149.590 279.900 L 150.458 278.800 159.629 278.800 C 168.267 278.800,168.847 278.847,169.600 279.600 M249.935 279.162 C 252.659 279.549,252.788 279.796,252.785 284.600 C 252.780 292.584,251.381 293.800,242.200 293.800 C 233.014 293.800,231.958 292.913,231.675 284.961 L 231.518 280.523 232.613 279.661 C 233.788 278.737,244.729 278.422,249.935 279.162 " stroke="none" fill="#fbfbfc" fill-rule="evenodd"></path></g></svg>