<svg id="svg" xmlns="http://www.w3.org/2000/svg" xmlns:xlink="http://www.w3.org/1999/xlink" width="400" height="400" viewBox="0, 0, 400,400" version="1.1"><g id="svgg"><path id="path0" d="M347.600 6.856 C 347.600 7.475,346.362 8.372,345.487 8.387 C 345.096 8.394,344.671 8.670,344.545 9.000 C 344.403 9.370,343.795 9.600,342.957 9.600 C 342.211 9.600,341.600 9.780,341.600 10.000 C 341.600 10.220,341.150 10.400,340.600 10.400 C 339.978 10.400,339.600 10.627,339.600 11.000 C 339.600 11.421,339.175 11.600,338.171 11.600 C 336.774 11.600,335.600 12.317,335.600 13.171 C 335.600 13.432,334.582 13.600,333.000 13.600 C 331.533 13.600,330.400 13.774,330.400 14.000 C 330.400 14.220,329.584 14.400,328.587 14.400 C 327.345 14.400,326.702 14.589,326.545 15.000 C 326.418 15.330,325.884 15.600,325.357 15.600 C 324.831 15.600,324.400 15.780,324.400 16.000 C 324.400 16.222,323.333 16.400,322.000 16.400 C 320.133 16.400,319.600 16.533,319.600 17.000 C 319.600 17.373,319.222 17.600,318.600 17.600 C 318.050 17.600,317.600 17.780,317.600 18.000 C 317.600 18.220,316.964 18.400,316.187 18.400 C 315.301 18.400,314.689 18.623,314.545 19.000 C 314.403 19.370,313.795 19.600,312.957 19.600 C 312.211 19.600,311.600 19.780,311.600 20.000 C 311.600 20.220,311.150 20.400,310.600 20.400 C 309.978 20.400,309.600 20.627,309.600 21.000 C 309.600 21.433,309.156 21.600,308.000 21.600 C 307.120 21.600,306.400 21.780,306.400 22.000 C 306.400 22.220,305.950 22.400,305.400 22.400 C 304.778 22.400,304.400 22.627,304.400 23.000 C 304.400 23.453,303.911 23.600,302.400 23.600 C 301.300 23.600,300.400 23.780,300.400 24.000 C 300.400 24.220,299.500 24.400,298.400 24.400 C 296.889 24.400,296.400 24.547,296.400 25.000 C 296.400 25.373,296.022 25.600,295.400 25.600 C 294.850 25.600,294.400 25.780,294.400 26.000 C 294.400 26.220,293.770 26.400,293.000 26.400 C 292.022 26.400,291.600 26.581,291.600 27.000 C 291.600 27.373,291.222 27.600,290.600 27.600 C 290.050 27.600,289.600 27.780,289.600 28.000 C 289.600 28.220,288.700 28.400,287.600 28.400 C 286.089 28.400,285.600 28.547,285.600 29.000 C 285.600 29.467,285.063 29.600,283.171 29.600 C 280.811 29.600,279.600 30.133,279.600 31.171 C 279.600 31.429,278.632 31.600,277.171 31.600 C 274.811 31.600,273.600 32.133,273.600 33.171 C 273.600 33.419,272.756 33.600,271.600 33.600 C 270.500 33.600,269.600 33.780,269.600 34.000 C 269.600 34.220,269.234 34.400,268.787 34.400 C 268.341 34.400,267.871 34.670,267.745 35.000 C 267.583 35.420,266.928 35.600,265.557 35.600 C 264.481 35.600,263.600 35.780,263.600 36.000 C 263.600 36.220,263.082 36.400,262.449 36.400 C 261.816 36.400,261.074 36.670,260.800 37.000 C 260.526 37.330,259.874 37.600,259.351 37.600 C 258.828 37.600,258.400 37.780,258.400 38.000 C 258.400 38.222,257.333 38.400,256.000 38.400 C 254.133 38.400,253.600 38.533,253.600 39.000 C 253.600 39.330,253.330 39.600,253.000 39.600 C 252.670 39.600,252.400 39.780,252.400 40.000 C 252.400 40.220,251.500 40.400,250.400 40.400 C 248.889 40.400,248.400 40.547,248.400 41.000 C 248.400 41.443,247.936 41.600,246.624 41.600 C 245.647 41.600,244.736 41.780,244.600 42.000 C 244.464 42.220,243.733 42.400,242.976 42.400 C 242.020 42.400,241.600 42.583,241.600 43.000 C 241.600 43.330,241.330 43.600,241.000 43.600 C 240.670 43.600,240.400 43.780,240.400 44.000 C 240.400 44.229,239.196 44.400,237.587 44.400 C 235.456 44.400,234.719 44.545,234.545 45.000 C 234.246 45.778,232.554 45.778,232.255 45.000 C 232.121 44.649,231.521 44.400,230.813 44.400 C 230.146 44.400,229.600 44.220,229.600 44.000 C 229.600 43.757,227.800 43.600,225.000 43.600 C 221.178 43.600,220.400 43.499,220.400 43.000 C 220.400 42.091,182.093 42.091,181.745 43.000 C 181.557 43.489,180.595 43.600,176.557 43.600 C 173.519 43.600,171.600 43.755,171.600 44.000 C 171.600 44.220,171.330 44.400,171.000 44.400 C 170.670 44.400,170.400 44.670,170.400 45.000 C 170.400 45.501,169.578 45.600,165.400 45.600 C 162.333 45.600,160.400 45.755,160.400 46.000 C 160.400 46.220,159.500 46.400,158.400 46.400 C 157.244 46.400,156.400 46.581,156.400 46.829 C 156.400 47.969,155.198 48.400,152.016 48.400 C 149.504 48.400,148.723 48.535,148.545 49.000 C 148.383 49.420,147.728 49.600,146.357 49.600 C 145.281 49.600,144.400 49.780,144.400 50.000 C 144.400 50.220,143.950 50.400,143.400 50.400 C 142.778 50.400,142.400 50.627,142.400 51.000 C 142.400 51.437,141.939 51.603,140.700 51.613 C 138.981 51.626,137.600 52.308,137.600 53.144 C 137.600 53.395,137.015 53.606,136.300 53.613 C 134.928 53.626,133.600 54.379,133.600 55.144 C 133.600 55.409,132.931 55.600,132.000 55.600 C 131.120 55.600,130.400 55.780,130.400 56.000 C 130.400 56.220,129.854 56.400,129.187 56.400 C 128.479 56.400,127.879 56.649,127.745 57.000 C 127.618 57.330,127.084 57.600,126.557 57.600 C 126.031 57.600,125.600 57.780,125.600 58.000 C 125.600 58.220,125.150 58.400,124.600 58.400 C 123.978 58.400,123.600 58.627,123.600 59.000 C 123.600 59.330,123.330 59.600,123.000 59.600 C 122.670 59.600,122.400 59.770,122.400 59.978 C 122.400 60.186,121.545 60.411,120.500 60.478 C 118.879 60.582,118.581 60.732,118.472 61.500 C 118.380 62.151,118.076 62.400,117.372 62.400 C 116.775 62.400,116.400 62.631,116.400 63.000 C 116.400 63.330,116.051 63.600,115.624 63.600 C 115.197 63.600,114.736 63.780,114.600 64.000 C 114.464 64.220,113.733 64.400,112.976 64.400 C 112.020 64.400,111.600 64.583,111.600 65.000 C 111.600 65.330,111.330 65.600,111.000 65.600 C 110.670 65.600,110.400 65.780,110.400 66.000 C 110.400 66.220,109.950 66.400,109.400 66.400 C 108.850 66.400,108.400 66.593,108.400 66.829 C 108.400 67.534,107.314 68.400,106.429 68.400 C 105.959 68.400,105.600 68.660,105.600 69.000 C 105.600 69.330,105.330 69.600,105.000 69.600 C 104.670 69.600,104.400 69.780,104.400 70.000 C 104.400 70.220,104.034 70.400,103.587 70.400 C 103.141 70.400,102.671 70.670,102.545 71.000 C 102.418 71.330,102.019 71.606,101.657 71.613 C 100.828 71.629,99.600 72.543,99.600 73.144 C 99.600 73.395,99.242 73.600,98.805 73.600 C 97.765 73.600,96.400 74.786,96.400 75.689 C 96.400 76.235,96.075 76.400,95.000 76.400 C 94.022 76.400,93.600 76.581,93.600 77.000 C 93.600 77.330,93.407 77.600,93.171 77.600 C 92.466 77.600,91.600 78.686,91.600 79.571 C 91.600 80.189,91.345 80.400,90.600 80.400 C 89.978 80.400,89.600 80.627,89.600 81.000 C 89.600 81.330,89.330 81.600,89.000 81.600 C 88.670 81.600,88.400 81.780,88.400 82.000 C 88.400 82.220,87.770 82.400,87.000 82.400 C 86.022 82.400,85.600 82.581,85.600 83.000 C 85.600 83.330,85.407 83.600,85.171 83.600 C 84.466 83.600,83.600 84.686,83.600 85.571 C 83.600 86.041,83.340 86.400,83.000 86.400 C 82.670 86.400,82.400 86.593,82.400 86.829 C 82.400 87.382,81.382 88.400,80.829 88.400 C 80.593 88.400,80.400 88.593,80.400 88.829 C 80.400 89.382,79.382 90.400,78.829 90.400 C 78.593 90.400,78.400 90.657,78.400 90.972 C 78.400 91.287,77.995 91.602,77.500 91.672 C 76.922 91.754,76.554 92.122,76.472 92.700 C 76.387 93.302,76.070 93.600,75.516 93.600 C 74.582 93.600,73.632 94.649,73.613 95.700 C 73.606 96.085,73.330 96.400,73.000 96.400 C 72.670 96.400,72.400 96.670,72.400 97.000 C 72.400 97.340,72.041 97.600,71.571 97.600 C 70.686 97.600,69.600 98.466,69.600 99.171 C 69.600 99.407,69.330 99.600,69.000 99.600 C 68.627 99.600,68.400 99.978,68.400 100.600 C 68.400 101.400,68.200 101.600,67.400 101.600 C 66.600 101.600,66.400 101.800,66.400 102.600 C 66.400 103.400,66.200 103.600,65.400 103.600 C 64.467 103.600,64.400 103.733,64.400 105.600 C 64.400 107.356,64.299 107.600,63.571 107.600 C 62.686 107.600,61.600 108.466,61.600 109.171 C 61.600 109.407,61.330 109.600,61.000 109.600 C 60.660 109.600,60.400 109.959,60.400 110.429 C 60.400 111.314,59.534 112.400,58.829 112.400 C 58.593 112.400,58.400 112.670,58.400 113.000 C 58.400 113.330,58.220 113.600,58.000 113.600 C 57.780 113.600,57.600 114.050,57.600 114.600 C 57.600 115.150,57.395 115.600,57.144 115.600 C 56.529 115.600,55.628 116.835,55.613 117.700 C 55.606 118.085,55.330 118.400,55.000 118.400 C 54.670 118.400,54.400 118.670,54.400 119.000 C 54.400 119.330,54.220 119.600,54.000 119.600 C 53.780 119.600,53.600 120.050,53.600 120.600 C 53.600 121.150,53.407 121.600,53.171 121.600 C 52.317 121.600,51.600 122.774,51.600 124.171 C 51.600 124.957,51.407 125.600,51.171 125.600 C 50.638 125.600,49.600 126.610,49.600 127.129 C 49.600 127.341,49.330 127.618,49.000 127.745 C 48.649 127.879,48.400 128.479,48.400 129.187 C 48.400 129.854,48.220 130.400,48.000 130.400 C 47.780 130.400,47.600 130.850,47.600 131.400 C 47.600 132.022,47.373 132.400,47.000 132.400 C 46.670 132.400,46.400 132.670,46.400 133.000 C 46.400 133.330,46.220 133.600,46.000 133.600 C 45.780 133.600,45.600 134.050,45.600 134.600 C 45.600 135.222,45.373 135.600,45.000 135.600 C 44.627 135.600,44.400 135.978,44.400 136.600 C 44.400 137.150,44.220 137.600,44.000 137.600 C 43.780 137.600,43.600 138.230,43.600 139.000 C 43.600 139.978,43.419 140.400,43.000 140.400 C 42.670 140.400,42.400 140.670,42.400 141.000 C 42.400 141.330,42.220 141.600,42.000 141.600 C 41.780 141.600,41.600 142.230,41.600 143.000 C 41.600 143.978,41.419 144.400,41.000 144.400 C 40.627 144.400,40.400 144.778,40.400 145.400 C 40.400 145.950,40.220 146.400,40.000 146.400 C 39.780 146.400,39.600 146.850,39.600 147.400 C 39.600 148.022,39.373 148.400,39.000 148.400 C 38.567 148.400,38.400 148.844,38.400 150.000 C 38.400 150.880,38.220 151.600,38.000 151.600 C 37.780 151.600,37.600 152.050,37.600 152.600 C 37.600 153.222,37.373 153.600,37.000 153.600 C 36.554 153.600,36.400 154.070,36.400 155.429 C 36.400 157.191,35.760 158.400,34.829 158.400 C 34.593 158.400,34.400 159.120,34.400 160.000 C 34.400 160.880,34.220 161.600,34.000 161.600 C 33.779 161.600,33.600 162.652,33.600 163.957 C 33.600 165.684,33.439 166.376,33.000 166.545 C 32.670 166.671,32.400 167.141,32.400 167.587 C 32.400 168.034,32.220 168.400,32.000 168.400 C 31.775 168.400,31.600 169.519,31.600 170.957 C 31.600 172.861,31.447 173.573,31.000 173.745 C 30.649 173.879,30.400 174.479,30.400 175.187 C 30.400 175.854,30.220 176.400,30.000 176.400 C 29.769 176.400,29.600 177.652,29.600 179.357 C 29.600 181.617,29.458 182.369,29.000 182.545 C 28.545 182.719,28.400 183.456,28.400 185.587 C 28.400 187.196,28.229 188.400,28.000 188.400 C 27.780 188.400,27.600 188.828,27.600 189.351 C 27.600 189.874,27.330 190.526,27.000 190.800 C 26.092 191.554,26.092 243.107,27.000 243.455 C 27.330 243.582,27.600 244.116,27.600 244.643 C 27.600 245.169,27.780 245.600,28.000 245.600 C 28.233 245.600,28.400 246.938,28.400 248.813 C 28.400 251.299,28.536 252.077,29.000 252.255 C 29.447 252.427,29.600 253.139,29.600 255.043 C 29.600 256.481,29.775 257.600,30.000 257.600 C 30.220 257.600,30.400 258.146,30.400 258.813 C 30.400 259.521,30.649 260.121,31.000 260.255 C 31.447 260.427,31.600 261.139,31.600 263.043 C 31.600 264.481,31.775 265.600,32.000 265.600 C 32.220 265.600,32.400 266.146,32.400 266.813 C 32.400 267.521,32.649 268.121,33.000 268.255 C 33.420 268.417,33.600 269.072,33.600 270.443 C 33.600 271.519,33.780 272.400,34.000 272.400 C 34.220 272.400,34.400 273.300,34.400 274.400 C 34.400 275.911,34.547 276.400,35.000 276.400 C 35.330 276.400,35.600 276.670,35.600 277.000 C 35.600 277.330,35.780 277.600,36.000 277.600 C 36.220 277.600,36.400 278.385,36.400 279.344 C 36.400 280.737,36.601 281.239,37.400 281.839 C 38.156 282.407,38.400 282.956,38.400 284.095 C 38.400 285.166,38.573 285.600,39.000 285.600 C 39.373 285.600,39.600 285.978,39.600 286.600 C 39.600 287.150,39.780 287.600,40.000 287.600 C 40.220 287.600,40.400 288.146,40.400 288.813 C 40.400 289.521,40.649 290.121,41.000 290.255 C 41.330 290.382,41.600 290.916,41.600 291.443 C 41.600 291.969,41.780 292.400,42.000 292.400 C 42.220 292.400,42.400 292.670,42.400 293.000 C 42.400 293.330,42.670 293.600,43.000 293.600 C 43.373 293.600,43.600 293.978,43.600 294.600 C 43.600 295.150,43.780 295.600,44.000 295.600 C 44.220 295.600,44.400 296.146,44.400 296.813 C 44.400 297.521,44.649 298.121,45.000 298.255 C 45.330 298.382,45.600 298.736,45.600 299.043 C 45.600 299.349,45.780 299.600,46.000 299.600 C 46.220 299.600,46.400 300.230,46.400 301.000 C 46.400 301.978,46.581 302.400,47.000 302.400 C 47.330 302.400,47.600 302.670,47.600 303.000 C 47.600 303.330,47.780 303.600,48.000 303.600 C 48.220 303.600,48.400 304.230,48.400 305.000 C 48.400 305.978,48.581 306.400,49.000 306.400 C 49.346 306.400,49.600 306.762,49.600 307.254 C 49.600 307.724,50.050 308.525,50.600 309.035 C 51.150 309.545,51.600 310.253,51.600 310.609 C 51.600 311.344,52.527 312.400,53.171 312.400 C 53.407 312.400,53.600 312.850,53.600 313.400 C 53.600 313.950,53.780 314.400,54.000 314.400 C 54.220 314.400,54.400 314.850,54.400 315.400 C 54.400 316.022,54.627 316.400,55.000 316.400 C 55.330 316.400,55.600 316.670,55.600 317.000 C 55.600 317.330,55.780 317.600,56.000 317.600 C 56.220 317.600,56.400 317.935,56.400 318.344 C 56.400 318.753,56.850 319.426,57.400 319.839 C 57.950 320.252,58.400 320.817,58.400 321.095 C 58.400 321.373,58.593 321.600,58.829 321.600 C 59.382 321.600,60.400 322.618,60.400 323.171 C 60.400 323.407,60.670 323.600,61.000 323.600 C 61.373 323.600,61.600 323.978,61.600 324.600 C 61.600 325.150,61.780 325.600,62.000 325.600 C 62.220 325.600,62.400 325.897,62.400 326.260 C 62.400 326.623,63.300 327.783,64.400 328.837 C 65.530 329.921,66.400 331.113,66.400 331.577 C 66.400 332.188,66.658 332.400,67.400 332.400 C 68.200 332.400,68.400 332.600,68.400 333.400 C 68.400 334.022,68.627 334.400,69.000 334.400 C 69.330 334.400,69.600 334.593,69.600 334.829 C 69.600 335.382,70.618 336.400,71.171 336.400 C 71.407 336.400,71.600 336.593,71.600 336.829 C 71.600 337.382,72.618 338.400,73.171 338.400 C 73.407 338.400,73.600 338.593,73.600 338.829 C 73.600 339.382,74.618 340.400,75.171 340.400 C 75.407 340.400,75.600 340.593,75.600 340.829 C 75.600 341.382,76.618 342.400,77.171 342.400 C 77.407 342.400,77.600 342.593,77.600 342.829 C 77.600 343.382,78.618 344.400,79.171 344.400 C 79.407 344.400,79.600 344.593,79.600 344.829 C 79.600 345.382,80.618 346.400,81.171 346.400 C 81.407 346.400,81.600 346.593,81.600 346.829 C 81.600 347.382,82.618 348.400,83.171 348.400 C 83.407 348.400,83.600 348.605,83.600 348.856 C 83.600 349.471,84.835 350.372,85.700 350.387 C 86.085 350.394,86.400 350.670,86.400 351.000 C 86.400 351.373,86.778 351.600,87.400 351.600 C 87.950 351.600,88.400 351.780,88.400 352.000 C 88.400 352.220,88.670 352.400,89.000 352.400 C 89.330 352.400,89.600 352.640,89.600 352.932 C 89.600 353.225,90.050 353.706,90.600 354.000 C 91.150 354.294,91.600 354.744,91.600 355.000 C 91.600 355.256,92.050 355.706,92.600 356.000 C 93.150 356.294,93.600 356.775,93.600 357.068 C 93.600 357.369,94.034 357.600,94.600 357.600 C 95.150 357.600,95.600 357.780,95.600 358.000 C 95.600 358.220,96.050 358.400,96.600 358.400 C 97.150 358.400,97.600 358.593,97.600 358.829 C 97.600 359.382,98.618 360.400,99.171 360.400 C 99.407 360.400,99.600 360.670,99.600 361.000 C 99.600 361.340,99.959 361.600,100.429 361.600 C 101.314 361.600,102.400 362.466,102.400 363.171 C 102.400 363.407,102.850 363.600,103.400 363.600 C 103.950 363.600,104.400 363.780,104.400 364.000 C 104.400 364.220,104.670 364.400,105.000 364.400 C 105.330 364.400,105.600 364.593,105.600 364.829 C 105.600 365.534,106.686 366.400,107.571 366.400 C 108.041 366.400,108.400 366.660,108.400 367.000 C 108.400 367.330,108.670 367.600,109.000 367.600 C 109.330 367.600,109.600 367.780,109.600 368.000 C 109.600 368.220,110.050 368.400,110.600 368.400 C 111.150 368.400,111.600 368.605,111.600 368.856 C 111.600 369.621,112.928 370.374,114.300 370.387 C 115.183 370.396,115.600 370.592,115.600 371.000 C 115.600 371.419,116.022 371.600,117.000 371.600 C 117.770 371.600,118.400 371.780,118.400 372.000 C 118.400 372.220,118.670 372.400,119.000 372.400 C 119.330 372.400,119.600 372.670,119.600 373.000 C 119.600 373.419,120.022 373.600,121.000 373.600 C 121.770 373.600,122.400 373.780,122.400 374.000 C 122.400 374.220,122.670 374.400,123.000 374.400 C 123.330 374.400,123.600 374.670,123.600 375.000 C 123.600 375.373,123.978 375.600,124.600 375.600 C 125.150 375.600,125.600 375.780,125.600 376.000 C 125.600 376.220,126.050 376.400,126.600 376.400 C 127.222 376.400,127.600 376.627,127.600 377.000 C 127.600 377.373,127.978 377.600,128.600 377.600 C 129.150 377.600,129.600 377.780,129.600 378.000 C 129.600 378.220,130.500 378.400,131.600 378.400 C 133.467 378.400,133.600 378.467,133.600 379.400 C 133.600 380.269,133.777 380.400,134.951 380.400 C 135.694 380.400,136.526 380.670,136.800 381.000 C 137.074 381.330,137.546 381.600,137.849 381.600 C 138.152 381.600,138.400 381.780,138.400 382.000 C 138.400 382.220,139.281 382.400,140.357 382.400 C 141.728 382.400,142.383 382.580,142.545 383.000 C 142.702 383.411,143.345 383.600,144.587 383.600 C 145.584 383.600,146.400 383.780,146.400 384.000 C 146.400 384.220,147.120 384.400,148.000 384.400 C 149.156 384.400,149.600 384.567,149.600 385.000 C 149.600 385.419,150.022 385.600,151.000 385.600 C 151.770 385.600,152.400 385.780,152.400 386.000 C 152.400 386.220,153.300 386.400,154.400 386.400 C 155.911 386.400,156.400 386.547,156.400 387.000 C 156.400 387.373,156.778 387.600,157.400 387.600 C 157.950 387.600,158.400 387.780,158.400 388.000 C 158.400 388.243,160.186 388.400,162.957 388.400 C 166.639 388.400,167.559 388.515,167.745 389.000 C 167.871 389.330,168.341 389.600,168.787 389.600 C 169.234 389.600,169.600 389.780,169.600 390.000 C 169.600 390.247,171.652 390.400,174.957 390.400 C 179.350 390.400,180.356 390.508,180.545 391.000 C 180.732 391.487,181.679 391.600,185.587 391.600 C 188.529 391.600,190.400 391.755,190.400 392.000 C 190.400 392.237,191.867 392.400,194.000 392.400 C 196.133 392.400,197.600 392.237,197.600 392.000 C 197.600 391.742,201.804 391.600,209.413 391.600 C 219.544 391.600,221.258 391.515,221.455 391.000 C 221.643 390.511,222.605 390.400,226.643 390.400 C 229.681 390.400,231.600 390.245,231.600 390.000 C 231.600 389.780,232.230 389.600,233.000 389.600 C 233.978 389.600,234.400 389.419,234.400 389.000 C 234.400 388.507,235.111 388.400,238.400 388.400 C 240.800 388.400,242.400 388.240,242.400 388.000 C 242.400 387.780,243.120 387.600,244.000 387.600 C 245.156 387.600,245.600 387.433,245.600 387.000 C 245.600 386.533,246.133 386.400,248.000 386.400 C 249.333 386.400,250.400 386.222,250.400 386.000 C 250.400 385.780,250.850 385.600,251.400 385.600 C 252.022 385.600,252.400 385.373,252.400 385.000 C 252.400 384.528,252.956 384.400,255.000 384.400 C 256.467 384.400,257.600 384.226,257.600 384.000 C 257.600 383.780,257.966 383.600,258.413 383.600 C 258.859 383.600,259.329 383.330,259.455 383.000 C 259.612 382.591,260.253 382.400,261.471 382.400 C 263.191 382.400,264.400 381.751,264.400 380.829 C 264.400 380.593,265.043 380.400,265.829 380.400 C 267.226 380.400,268.400 379.683,268.400 378.829 C 268.400 378.593,269.120 378.400,270.000 378.400 C 270.880 378.400,271.600 378.220,271.600 378.000 C 271.600 377.780,272.050 377.600,272.600 377.600 C 273.222 377.600,273.600 377.373,273.600 377.000 C 273.600 376.627,273.978 376.400,274.600 376.400 C 275.150 376.400,275.600 376.220,275.600 376.000 C 275.600 375.780,276.146 375.600,276.813 375.600 C 277.521 375.600,278.121 375.351,278.255 375.000 C 278.382 374.670,278.736 374.400,279.043 374.400 C 279.349 374.400,279.600 374.220,279.600 374.000 C 279.600 373.780,280.230 373.600,281.000 373.600 C 281.978 373.600,282.400 373.419,282.400 373.000 C 282.400 372.670,282.670 372.400,283.000 372.400 C 283.330 372.400,283.600 372.220,283.600 372.000 C 283.600 371.780,284.230 371.600,285.000 371.600 C 285.978 371.600,286.400 371.419,286.400 371.000 C 286.400 370.592,286.817 370.396,287.700 370.387 C 289.072 370.374,290.400 369.621,290.400 368.856 C 290.400 368.605,290.670 368.400,291.000 368.400 C 291.330 368.400,291.600 368.220,291.600 368.000 C 291.600 367.780,291.966 367.600,292.413 367.600 C 292.859 367.600,293.329 367.330,293.455 367.000 C 293.582 366.670,293.981 366.394,294.343 366.387 C 295.172 366.371,296.400 365.457,296.400 364.856 C 296.400 364.605,296.670 364.400,297.000 364.400 C 297.330 364.400,297.600 364.220,297.600 364.000 C 297.600 363.780,297.935 363.600,298.344 363.600 C 298.753 363.600,299.426 363.150,299.839 362.600 C 300.253 362.049,300.996 361.600,301.495 361.600 C 302.033 361.600,302.400 361.357,302.400 361.000 C 302.400 360.670,302.670 360.400,303.000 360.400 C 303.330 360.400,303.600 360.220,303.600 360.000 C 303.600 359.780,303.935 359.600,304.344 359.600 C 304.753 359.600,305.426 359.150,305.839 358.600 C 306.253 358.049,306.996 357.600,307.495 357.600 C 307.993 357.600,308.400 357.360,308.400 357.068 C 308.400 356.775,308.850 356.294,309.400 356.000 C 309.950 355.706,310.400 355.225,310.400 354.932 C 310.400 354.640,310.593 354.400,310.829 354.400 C 311.310 354.400,312.400 353.410,312.400 352.973 C 312.400 352.448,313.791 351.626,314.700 351.613 C 315.195 351.606,315.600 351.407,315.600 351.171 C 315.600 350.547,316.539 349.709,317.428 349.539 C 317.863 349.456,318.256 349.000,318.328 348.496 C 318.398 348.003,318.713 347.600,319.028 347.600 C 319.343 347.600,319.600 347.407,319.600 347.171 C 319.600 346.618,320.618 345.600,321.171 345.600 C 321.407 345.600,321.600 345.407,321.600 345.171 C 321.600 344.618,322.618 343.600,323.171 343.600 C 323.407 343.600,323.600 343.407,323.600 343.171 C 323.600 342.618,324.618 341.600,325.171 341.600 C 325.407 341.600,325.600 341.407,325.600 341.171 C 325.600 340.618,326.618 339.600,327.171 339.600 C 327.407 339.600,327.600 339.407,327.600 339.171 C 327.600 338.618,328.618 337.600,329.171 337.600 C 329.407 337.600,329.600 337.407,329.600 337.171 C 329.600 336.618,330.618 335.600,331.171 335.600 C 331.407 335.600,331.600 335.373,331.600 335.095 C 331.600 334.817,332.050 334.252,332.600 333.839 C 333.150 333.426,333.600 332.753,333.600 332.344 C 333.600 331.935,333.825 331.594,334.100 331.587 C 334.972 331.563,336.400 330.104,336.400 329.236 C 336.400 328.776,336.593 328.400,336.829 328.400 C 337.382 328.400,338.400 327.382,338.400 326.829 C 338.400 326.593,338.605 326.400,338.856 326.400 C 339.457 326.400,340.371 325.172,340.387 324.343 C 340.394 323.981,340.670 323.582,341.000 323.455 C 341.330 323.329,341.600 322.859,341.600 322.413 C 341.600 321.966,341.780 321.600,342.000 321.600 C 342.220 321.600,342.400 321.330,342.400 321.000 C 342.400 320.670,342.593 320.400,342.829 320.400 C 343.362 320.400,344.400 319.390,344.400 318.871 C 344.400 318.659,344.670 318.382,345.000 318.255 C 345.330 318.129,345.600 317.659,345.600 317.213 C 345.600 316.766,345.780 316.400,346.000 316.400 C 346.220 316.400,346.400 315.950,346.400 315.400 C 346.400 314.850,346.593 314.400,346.829 314.400 C 347.303 314.400,348.400 313.413,348.400 312.986 C 348.400 312.837,348.850 312.361,349.400 311.929 C 350.119 311.363,350.400 310.757,350.400 309.771 C 350.400 308.819,350.583 308.400,351.000 308.400 C 351.340 308.400,351.600 308.041,351.600 307.571 C 351.600 306.686,352.466 305.600,353.171 305.600 C 353.407 305.600,353.600 304.957,353.600 304.171 C 353.600 302.774,354.317 301.600,355.171 301.600 C 355.407 301.600,355.600 301.150,355.600 300.600 C 355.600 300.050,355.780 299.600,356.000 299.600 C 356.220 299.600,356.400 299.150,356.400 298.600 C 356.400 297.978,356.627 297.600,357.000 297.600 C 357.330 297.600,357.600 297.330,357.600 297.000 C 357.600 296.670,357.780 296.400,358.000 296.400 C 358.220 296.400,358.400 295.969,358.400 295.443 C 358.400 294.916,358.670 294.382,359.000 294.255 C 359.330 294.129,359.600 293.659,359.600 293.213 C 359.600 292.766,359.780 292.400,360.000 292.400 C 360.220 292.400,360.400 291.770,360.400 291.000 C 360.400 290.022,360.581 289.600,361.000 289.600 C 361.330 289.600,361.600 289.330,361.600 289.000 C 361.600 288.670,361.780 288.400,362.000 288.400 C 362.220 288.400,362.400 287.789,362.400 287.043 C 362.400 286.205,362.630 285.597,363.000 285.455 C 363.409 285.298,363.600 284.658,363.600 283.440 C 363.600 281.894,363.720 281.639,364.500 281.528 C 365.268 281.419,365.418 281.121,365.522 279.500 C 365.589 278.455,365.814 277.600,366.022 277.600 C 366.230 277.600,366.400 276.781,366.400 275.781 C 366.400 274.354,366.616 273.762,367.400 273.035 C 368.234 272.262,368.400 271.741,368.400 269.903 C 368.400 268.431,368.599 267.532,369.000 267.200 C 369.330 266.926,369.600 266.454,369.600 266.151 C 369.600 265.848,369.780 265.600,370.000 265.600 C 370.231 265.600,370.400 264.348,370.400 262.643 C 370.400 260.383,370.542 259.631,371.000 259.455 C 371.330 259.329,371.600 258.859,371.600 258.413 C 371.600 257.966,371.780 257.600,372.000 257.600 C 372.225 257.600,372.400 256.481,372.400 255.043 C 372.400 253.139,372.553 252.427,373.000 252.255 C 373.464 252.077,373.600 251.299,373.600 248.813 C 373.600 246.938,373.767 245.600,374.000 245.600 C 374.263 245.600,374.400 236.000,374.400 217.600 C 374.400 199.200,374.263 189.600,374.000 189.600 C 373.780 189.600,373.600 188.653,373.600 187.496 C 373.600 185.806,373.403 185.180,372.600 184.313 C 371.679 183.320,371.600 182.935,371.600 179.417 C 371.600 176.291,371.491 175.600,371.000 175.600 C 370.520 175.600,370.400 175.000,370.400 172.600 C 370.400 170.867,370.231 169.600,370.000 169.600 C 369.780 169.600,369.600 169.150,369.600 168.600 C 369.600 167.978,369.373 167.600,369.000 167.600 C 368.533 167.600,368.400 167.063,368.400 165.171 C 368.400 162.811,367.867 161.600,366.829 161.600 C 366.581 161.600,366.400 160.756,366.400 159.600 C 366.400 158.500,366.220 157.600,366.000 157.600 C 365.780 157.600,365.600 156.700,365.600 155.600 C 365.600 154.089,365.453 153.600,365.000 153.600 C 364.627 153.600,364.400 153.222,364.400 152.600 C 364.400 152.050,364.220 151.600,364.000 151.600 C 363.780 151.600,363.600 150.880,363.600 150.000 C 363.600 148.844,363.433 148.400,363.000 148.400 C 362.581 148.400,362.400 147.978,362.400 147.000 C 362.400 146.230,362.220 145.600,362.000 145.600 C 361.780 145.600,361.600 145.330,361.600 145.000 C 361.600 144.670,361.330 144.400,361.000 144.400 C 360.594 144.400,360.400 143.994,360.400 143.146 C 360.400 142.322,360.057 141.574,359.400 140.965 C 358.755 140.367,358.400 139.606,358.400 138.819 C 358.400 138.149,358.220 137.600,358.000 137.600 C 357.780 137.600,357.600 137.330,357.600 137.000 C 357.600 136.670,357.330 136.400,357.000 136.400 C 356.627 136.400,356.400 136.022,356.400 135.400 C 356.400 134.850,356.220 134.400,356.000 134.400 C 355.780 134.400,355.600 133.950,355.600 133.400 C 355.600 132.850,355.407 132.400,355.171 132.400 C 353.560 132.400,353.607 134.198,353.501 69.530 L 353.400 7.800 352.500 7.672 C 352.005 7.602,351.600 7.287,351.600 6.972 C 351.600 6.552,351.068 6.400,349.600 6.400 C 348.370 6.400,347.600 6.575,347.600 6.856 M210.000 77.202 C 217.023 77.633,220.542 78.090,226.000 79.281 C 228.090 79.737,230.700 80.248,231.800 80.416 C 232.900 80.584,234.970 81.085,236.400 81.529 C 237.830 81.973,240.080 82.639,241.400 83.008 C 244.716 83.935,249.658 85.575,250.495 86.026 C 250.877 86.232,251.383 86.400,251.619 86.400 C 252.438 86.400,264.015 91.792,267.800 93.936 C 274.094 97.501,283.695 103.873,286.834 106.568 C 287.623 107.246,289.063 108.425,290.034 109.188 C 292.725 111.304,307.234 125.906,309.124 128.400 C 311.991 132.185,317.475 139.781,317.642 140.200 C 317.729 140.420,318.627 141.860,319.637 143.400 C 322.829 148.269,329.600 161.274,329.600 162.536 C 329.600 162.690,330.022 163.487,330.538 164.308 C 331.053 165.129,331.571 166.250,331.689 166.800 C 331.938 167.962,333.477 172.427,334.261 174.260 C 334.558 174.954,334.800 175.888,334.800 176.337 C 334.800 176.786,334.961 177.252,335.158 177.374 C 335.355 177.495,335.608 178.271,335.722 179.097 C 335.835 179.924,336.230 181.680,336.600 183.000 C 336.971 184.320,337.431 186.210,337.623 187.200 C 337.815 188.190,338.265 190.350,338.622 192.000 C 338.978 193.650,339.426 196.350,339.616 198.000 C 339.807 199.650,340.125 202.260,340.323 203.800 C 341.407 212.215,340.551 230.876,338.597 241.400 C 338.230 243.380,337.781 245.810,337.599 246.800 C 337.417 247.790,336.975 249.770,336.615 251.200 C 336.256 252.630,335.868 254.340,335.754 255.000 C 335.639 255.660,335.392 256.560,335.203 257.000 C 335.015 257.440,334.559 258.880,334.191 260.200 C 333.822 261.520,333.380 262.960,333.208 263.400 C 333.036 263.840,332.583 265.010,332.200 266.000 C 330.532 270.315,330.072 271.414,328.599 274.600 C 324.875 282.656,318.609 293.546,314.444 299.200 C 313.329 300.715,310.335 304.475,309.985 304.800 C 309.867 304.910,307.707 307.335,305.185 310.190 C 298.393 317.876,294.972 321.170,287.400 327.311 C 284.949 329.299,274.790 336.355,272.600 337.591 C 271.940 337.964,270.500 338.777,269.400 339.398 C 265.504 341.598,257.516 345.600,257.021 345.600 C 256.745 345.600,255.673 346.050,254.638 346.600 C 253.604 347.150,252.437 347.600,252.046 347.600 C 251.654 347.600,251.223 347.710,251.088 347.845 C 250.748 348.185,244.444 350.407,239.400 351.965 C 238.740 352.169,237.436 352.456,236.502 352.603 C 235.568 352.749,234.703 353.034,234.578 353.235 C 234.454 353.436,233.812 353.600,233.150 353.600 C 232.489 353.600,231.567 353.803,231.103 354.052 C 230.193 354.539,227.284 355.041,222.200 355.588 C 220.440 355.777,217.740 356.166,216.200 356.453 C 212.248 357.188,187.937 357.163,184.600 356.420 C 183.280 356.127,180.940 355.749,179.400 355.582 C 177.860 355.414,175.250 354.983,173.600 354.625 C 171.950 354.266,169.790 353.814,168.800 353.620 C 165.646 353.000,163.411 352.365,163.020 351.977 C 162.811 351.770,162.147 351.600,161.544 351.600 C 160.941 351.600,160.336 351.420,160.200 351.200 C 160.064 350.980,159.676 350.800,159.337 350.800 C 158.998 350.800,158.154 350.555,157.460 350.255 C 155.345 349.341,149.843 347.590,149.100 347.595 C 148.715 347.598,148.400 347.420,148.400 347.200 C 148.400 346.980,148.210 346.800,147.978 346.800 C 147.302 346.800,143.701 345.106,135.600 340.977 C 133.950 340.136,132.510 339.329,132.400 339.184 C 132.290 339.038,131.120 338.323,129.800 337.594 C 128.480 336.866,126.770 335.920,126.000 335.494 C 125.230 335.068,124.316 334.467,123.969 334.159 C 123.621 333.852,123.208 333.600,123.051 333.600 C 122.894 333.600,122.280 333.150,121.687 332.600 C 121.093 332.050,120.426 331.600,120.204 331.600 C 119.982 331.599,119.260 331.129,118.600 330.555 C 117.940 329.980,116.770 329.037,116.000 328.458 C 115.230 327.878,114.510 327.303,114.400 327.179 C 114.290 327.055,112.670 325.724,110.800 324.221 C 104.761 319.366,92.857 306.919,88.210 300.600 C 87.563 299.720,86.891 298.940,86.717 298.867 C 86.542 298.793,86.400 298.556,86.400 298.340 C 86.400 298.124,85.950 297.357,85.400 296.636 C 84.850 295.914,84.400 295.194,84.400 295.036 C 84.400 294.877,83.995 294.174,83.499 293.473 C 83.003 292.773,82.382 291.840,82.117 291.400 C 80.591 288.862,77.587 283.591,76.760 282.000 C 75.138 278.880,70.952 269.423,70.385 267.600 C 70.214 267.050,69.317 264.530,68.392 262.000 C 67.466 259.470,66.564 256.770,66.386 256.000 C 66.209 255.230,65.763 253.610,65.396 252.400 C 65.029 251.190,64.583 249.480,64.404 248.600 C 64.225 247.720,63.774 245.650,63.403 244.000 C 63.032 242.350,62.571 239.740,62.379 238.200 C 62.187 236.660,61.853 233.960,61.637 232.200 C 61.118 227.984,61.118 208.484,61.636 203.400 C 62.640 193.556,62.818 192.391,64.378 185.400 C 65.314 181.205,69.563 167.399,70.779 164.600 C 72.422 160.819,78.950 147.969,80.479 145.504 C 81.536 143.802,82.400 142.242,82.400 142.038 C 82.400 141.834,82.539 141.607,82.709 141.533 C 82.879 141.460,84.043 139.870,85.297 138.000 C 86.551 136.130,88.208 133.880,88.980 133.000 C 89.753 132.120,90.388 131.241,90.392 131.046 C 90.397 130.851,90.805 130.308,91.300 129.839 C 91.795 129.370,93.190 127.821,94.400 126.396 C 99.956 119.855,108.904 111.172,114.595 106.800 C 118.748 103.610,122.198 101.067,123.177 100.476 C 123.792 100.104,126.159 98.630,128.436 97.200 C 133.740 93.870,133.079 94.242,139.275 91.096 C 142.204 89.609,144.810 88.394,145.068 88.396 C 145.325 88.398,146.135 88.100,146.868 87.732 C 149.259 86.534,149.583 86.400,150.086 86.400 C 150.359 86.400,151.757 85.977,153.192 85.460 C 154.626 84.943,156.520 84.293,157.400 84.014 C 158.280 83.736,159.540 83.274,160.200 82.988 C 160.860 82.701,161.940 82.375,162.600 82.262 C 163.260 82.149,164.880 81.757,166.200 81.391 C 167.520 81.026,169.410 80.585,170.400 80.412 C 171.390 80.239,173.640 79.793,175.400 79.420 C 185.690 77.241,197.895 76.458,210.000 77.202 M168.800 140.785 C 163.765 141.224,162.164 142.588,161.307 147.166 C 160.636 150.752,160.536 150.800,153.783 150.800 C 144.699 150.800,141.679 152.599,140.019 159.000 C 139.235 162.025,139.462 264.687,140.260 267.865 C 141.021 270.892,142.314 272.429,145.421 274.000 L 147.400 275.000 195.600 275.112 C 250.247 275.239,255.092 275.104,257.477 273.390 C 262.437 269.825,262.200 272.922,262.200 211.600 C 262.200 153.316,262.373 156.669,259.206 153.690 C 256.525 151.167,255.217 150.813,248.533 150.806 C 241.334 150.798,240.400 150.338,240.400 146.800 C 240.400 144.668,239.065 142.799,236.400 141.200 C 235.335 140.561,175.577 140.194,168.800 140.785 M234.574 145.990 C 235.994 146.530,236.080 149.306,234.700 150.071 C 233.443 150.768,168.533 151.114,167.256 150.430 C 165.992 149.753,166.022 146.704,167.300 146.088 C 168.484 145.517,233.082 145.423,234.574 145.990 M224.523 157.086 C 228.030 159.099,228.009 164.068,224.486 165.954 C 222.324 167.111,180.224 166.826,177.087 165.633 C 173.694 164.343,173.872 158.627,177.355 157.006 C 180.106 155.726,222.279 155.798,224.523 157.086 M198.051 173.061 C 198.501 173.603,198.621 178.456,198.719 200.061 L 198.837 226.399 197.837 227.399 L 196.836 228.400 175.214 228.400 C 151.093 228.400,151.450 228.439,148.997 225.524 C 147.530 223.780,147.559 224.356,147.730 200.800 C 147.922 174.221,147.837 174.715,152.496 173.066 C 155.197 172.110,197.258 172.106,198.051 173.061 M249.729 173.078 C 254.148 174.380,254.125 174.244,254.060 197.982 C 253.978 228.275,254.256 226.936,247.876 227.881 C 242.794 228.634,205.617 228.593,204.576 227.833 C 203.177 226.811,202.585 174.704,203.954 173.055 C 204.640 172.229,246.922 172.252,249.729 173.078 M163.378 245.017 C 168.212 247.036,171.120 255.074,168.100 258.065 C 167.825 258.337,167.600 258.728,167.600 258.934 C 167.600 261.663,159.964 263.715,156.197 261.999 C 145.734 257.232,152.773 240.586,163.378 245.017 M244.938 245.173 C 252.295 248.327,252.809 258.264,245.806 261.959 C 243.219 263.324,239.012 263.156,236.868 261.603 C 228.143 255.283,235.166 240.985,244.938 245.173 M234.700 280.240 L 232.800 280.824 232.800 284.788 C 232.800 287.000,232.977 288.862,233.200 289.000 C 233.420 289.136,233.600 289.565,233.600 289.954 C 233.600 292.110,235.186 292.594,242.273 292.597 L 248.888 292.600 249.985 291.286 C 251.737 289.187,252.377 282.101,250.931 280.806 C 249.469 279.497,238.374 279.110,234.700 280.240 M151.495 280.277 C 149.704 280.744,149.257 283.335,150.230 287.610 C 151.041 291.180,152.314 292.400,155.225 292.400 C 156.305 292.400,157.988 292.614,158.966 292.875 C 162.099 293.713,166.284 292.816,167.900 290.960 C 169.325 289.323,169.923 281.683,168.720 280.480 C 168.250 280.010,153.199 279.832,151.495 280.277 " stroke="none" fill="#0464eb" fill-rule="evenodd"></path><path id="path1" d="M189.600 77.434 C 182.611 78.128,179.334 78.587,175.400 79.420 C 173.640 79.793,171.390 80.239,170.400 80.412 C 169.410 80.585,167.520 81.026,166.200 81.391 C 164.880 81.757,163.260 82.149,162.600 82.262 C 161.940 82.375,160.860 82.701,160.200 82.988 C 159.540 83.274,158.280 83.736,157.400 84.014 C 156.520 84.293,154.626 84.943,153.192 85.460 C 151.757 85.977,150.359 86.400,150.086 86.400 C 149.583 86.400,149.259 86.534,146.868 87.732 C 146.135 88.100,145.325 88.398,145.068 88.396 C 144.810 88.394,142.204 89.609,139.275 91.096 C 133.079 94.242,133.740 93.870,128.436 97.200 C 126.159 98.630,123.792 100.104,123.177 100.476 C 122.198 101.067,118.748 103.610,114.595 106.800 C 108.904 111.172,99.956 119.855,94.400 126.396 C 93.190 127.821,91.795 129.370,91.300 129.839 C 90.805 130.308,90.397 130.851,90.392 131.046 C 90.388 131.241,89.753 132.120,88.980 133.000 C 88.208 133.880,86.551 136.130,85.297 138.000 C 84.043 139.870,82.879 141.460,82.709 141.533 C 82.539 141.607,82.400 141.834,82.400 142.038 C 82.400 142.242,81.536 143.802,80.479 145.504 C 78.950 147.969,72.422 160.819,70.779 164.600 C 69.563 167.399,65.314 181.205,64.378 185.400 C 62.818 192.391,62.640 193.556,61.636 203.400 C 61.118 208.484,61.118 227.984,61.637 232.200 C 61.853 233.960,62.187 236.660,62.379 238.200 C 62.571 239.740,63.032 242.350,63.403 244.000 C 63.774 245.650,64.225 247.720,64.404 248.600 C 64.583 249.480,65.029 251.190,65.396 252.400 C 65.763 253.610,66.209 255.230,66.386 256.000 C 66.564 256.770,67.466 259.470,68.392 262.000 C 69.317 264.530,70.214 267.050,70.385 267.600 C 70.952 269.423,75.138 278.880,76.760 282.000 C 77.587 283.591,80.591 288.862,82.117 291.400 C 82.382 291.840,83.003 292.773,83.499 293.473 C 83.995 294.174,84.400 294.877,84.400 295.036 C 84.400 295.194,84.850 295.914,85.400 296.636 C 85.950 297.357,86.400 298.124,86.400 298.340 C 86.400 298.556,86.542 298.793,86.717 298.867 C 86.891 298.940,87.563 299.720,88.210 300.600 C 92.857 306.919,104.761 319.366,110.800 324.221 C 112.670 325.724,114.290 327.055,114.400 327.179 C 114.510 327.303,115.230 327.878,116.000 328.458 C 116.770 329.037,117.940 329.980,118.600 330.555 C 119.260 331.129,119.982 331.599,120.204 331.600 C 120.426 331.600,121.093 332.050,121.687 332.600 C 122.280 333.150,122.894 333.600,123.051 333.600 C 123.208 333.600,123.621 333.852,123.969 334.159 C 124.316 334.467,125.230 335.068,126.000 335.494 C 126.770 335.920,128.480 336.866,129.800 337.594 C 131.120 338.323,132.290 339.038,132.400 339.184 C 132.510 339.329,133.950 340.136,135.600 340.977 C 143.701 345.106,147.302 346.800,147.978 346.800 C 148.210 346.800,148.400 346.980,148.400 347.200 C 148.400 347.420,148.715 347.598,149.100 347.595 C 149.843 347.590,155.345 349.341,157.460 350.255 C 158.154 350.555,158.998 350.800,159.337 350.800 C 159.676 350.800,160.064 350.980,160.200 351.200 C 160.336 351.420,160.941 351.600,161.544 351.600 C 162.147 351.600,162.811 351.770,163.020 351.977 C 163.411 352.365,165.646 353.000,168.800 353.620 C 169.790 353.814,171.950 354.266,173.600 354.625 C 175.250 354.983,177.860 355.414,179.400 355.582 C 180.940 355.749,183.280 356.127,184.600 356.420 C 187.937 357.163,212.248 357.188,216.200 356.453 C 217.740 356.166,220.440 355.777,222.200 355.588 C 227.284 355.041,230.193 354.539,231.103 354.052 C 231.567 353.803,232.489 353.600,233.150 353.600 C 233.812 353.600,234.454 353.436,234.578 353.235 C 234.703 353.034,235.568 352.749,236.502 352.603 C 237.436 352.456,238.740 352.169,239.400 351.965 C 244.444 350.407,250.748 348.185,251.088 347.845 C 251.223 347.710,251.654 347.600,252.046 347.600 C 252.437 347.600,253.604 347.150,254.638 346.600 C 255.673 346.050,256.745 345.600,257.021 345.600 C 257.516 345.600,265.504 341.598,269.400 339.398 C 270.500 338.777,271.940 337.964,272.600 337.591 C 274.790 336.355,284.949 329.299,287.400 327.311 C 294.972 321.170,298.393 317.876,305.185 310.190 C 307.707 307.335,309.867 304.910,309.985 304.800 C 310.103 304.690,310.923 303.700,311.807 302.600 C 318.526 294.236,326.781 279.781,331.110 268.800 C 331.327 268.250,331.817 266.990,332.200 266.000 C 332.583 265.010,333.036 263.840,333.208 263.400 C 333.380 262.960,333.822 261.520,334.191 260.200 C 334.559 258.880,335.015 257.440,335.203 257.000 C 335.392 256.560,335.639 255.660,335.754 255.000 C 335.868 254.340,336.256 252.630,336.615 251.200 C 336.975 249.770,337.417 247.790,337.599 246.800 C 337.781 245.810,338.230 243.380,338.597 241.400 C 340.551 230.876,341.407 212.215,340.323 203.800 C 340.125 202.260,339.807 199.650,339.616 198.000 C 339.426 196.350,338.978 193.650,338.622 192.000 C 338.265 190.350,337.815 188.190,337.623 187.200 C 337.431 186.210,336.971 184.320,336.600 183.000 C 336.230 181.680,335.835 179.924,335.722 179.097 C 335.608 178.271,335.355 177.495,335.158 177.374 C 334.961 177.252,334.800 176.786,334.800 176.337 C 334.800 175.888,334.558 174.954,334.261 174.260 C 333.477 172.427,331.938 167.962,331.689 166.800 C 331.571 166.250,331.053 165.129,330.538 164.308 C 330.022 163.487,329.600 162.690,329.600 162.536 C 329.600 161.274,322.829 148.269,319.637 143.400 C 318.627 141.860,317.729 140.420,317.642 140.200 C 317.475 139.781,311.991 132.185,309.124 128.400 C 307.234 125.906,292.725 111.304,290.034 109.188 C 289.063 108.425,287.623 107.246,286.834 106.568 C 280.933 101.502,268.329 93.828,258.600 89.378 C 253.118 86.870,252.016 86.400,251.619 86.400 C 251.383 86.400,250.877 86.232,250.495 86.026 C 249.658 85.575,244.716 83.935,241.400 83.008 C 240.080 82.639,237.830 81.973,236.400 81.529 C 234.970 81.085,232.900 80.584,231.800 80.416 C 230.700 80.248,228.090 79.737,226.000 79.281 C 215.446 76.979,201.366 76.264,189.600 77.434 M236.400 141.200 C 239.065 142.799,240.400 144.668,240.400 146.800 C 240.400 150.338,241.334 150.798,248.533 150.806 C 255.217 150.813,256.525 151.167,259.206 153.690 C 262.373 156.669,262.200 153.316,262.200 211.600 C 262.200 272.922,262.437 269.825,257.477 273.390 C 255.092 275.104,250.247 275.239,195.600 275.112 L 147.400 275.000 145.421 274.000 C 142.314 272.429,141.021 270.892,140.260 267.865 C 139.462 264.687,139.235 162.025,140.019 159.000 C 141.679 152.599,144.699 150.800,153.783 150.800 C 160.536 150.800,160.636 150.752,161.307 147.166 C 162.164 142.588,163.765 141.224,168.800 140.785 C 175.577 140.194,235.335 140.561,236.400 141.200 M167.300 146.088 C 166.022 146.704,165.992 149.753,167.256 150.430 C 168.533 151.114,233.443 150.768,234.700 150.071 C 236.080 149.306,235.994 146.530,234.574 145.990 C 233.082 145.423,168.484 145.517,167.300 146.088 M181.000 156.258 C 177.156 156.529,175.725 157.403,174.786 160.056 C 174.121 161.936,175.379 164.984,177.087 165.633 C 180.224 166.826,222.324 167.111,224.486 165.954 C 228.009 164.068,228.030 159.099,224.523 157.086 C 223.267 156.366,188.784 155.709,181.000 156.258 M152.496 173.066 C 147.837 174.715,147.922 174.221,147.730 200.800 C 147.559 224.356,147.530 223.780,148.997 225.524 C 151.450 228.439,151.093 228.400,175.214 228.400 L 196.836 228.400 197.837 227.399 L 198.837 226.399 198.719 200.061 C 198.621 178.456,198.501 173.603,198.051 173.061 C 197.258 172.106,155.197 172.110,152.496 173.066 M203.954 173.055 C 202.585 174.704,203.177 226.811,204.576 227.833 C 205.617 228.593,242.794 228.634,247.876 227.881 C 254.256 226.936,253.978 228.275,254.060 197.982 C 254.125 174.244,254.148 174.380,249.729 173.078 C 246.922 172.252,204.640 172.229,203.954 173.055 M156.800 245.066 C 147.401 249.097,149.941 262.833,160.078 262.791 C 163.041 262.779,167.600 260.441,167.600 258.934 C 167.600 258.728,167.825 258.337,168.100 258.065 C 168.375 257.793,168.786 256.632,169.014 255.485 C 170.406 248.467,163.200 242.321,156.800 245.066 M238.800 244.907 C 229.603 249.075,231.571 262.800,241.366 262.800 C 250.029 262.800,253.971 253.511,247.972 247.233 C 245.664 244.818,241.389 243.734,238.800 244.907 M249.240 280.055 C 249.988 280.305,250.749 280.643,250.931 280.806 C 252.377 282.101,251.737 289.187,249.985 291.286 L 248.888 292.600 242.273 292.597 C 235.186 292.594,233.600 292.110,233.600 289.954 C 233.600 289.565,233.420 289.136,233.200 289.000 C 232.977 288.862,232.800 287.000,232.800 284.788 L 232.800 280.824 234.700 280.240 C 237.051 279.517,247.244 279.387,249.240 280.055 M168.720 280.480 C 169.923 281.683,169.325 289.323,167.900 290.960 C 166.284 292.816,162.099 293.713,158.966 292.875 C 157.988 292.614,156.305 292.400,155.225 292.400 C 152.314 292.400,151.041 291.180,150.230 287.610 C 149.257 283.335,149.704 280.744,151.495 280.277 C 153.199 279.832,168.250 280.010,168.720 280.480 " stroke="none" fill="#fbfbfc" fill-rule="evenodd"></path></g></svg>