<svg id="svg" xmlns="http://www.w3.org/2000/svg" xmlns:xlink="http://www.w3.org/1999/xlink" width="400" height="481.917211328976" viewBox="0, 0, 400,481.917211328976"><g id="svgg"><path id="path0" d="M109.171 24.437 C 96.559 25.472,91.241 28.892,88.902 37.473 C 88.445 39.150,87.460 42.775,86.714 45.529 C 84.642 53.174,83.952 53.438,64.123 54.149 C 33.711 55.239,26.068 61.177,24.303 85.090 C 22.581 108.405,23.485 386.391,25.317 397.207 C 26.914 406.631,30.903 411.649,41.025 416.968 L 47.092 420.156 200.235 419.759 C 375.894 419.303,366.722 419.766,375.845 410.906 C 383.722 403.256,383.622 405.251,384.051 247.143 C 384.528 71.170,384.513 70.841,375.938 62.731 C 368.185 55.398,365.760 54.699,345.534 53.962 C 322.295 53.115,321.438 52.714,319.961 41.997 C 318.967 34.787,316.690 31.040,311.027 27.292 L 307.598 25.023 280.814 24.329 C 247.453 23.464,120.052 23.545,109.171 24.437 M305.088 40.837 C 307.235 43.489,307.246 48.309,305.111 50.444 C 302.700 52.855,279.220 53.457,184.624 53.532 C 94.574 53.604,101.961 54.260,101.961 46.187 C 101.961 37.957,91.878 38.651,210.317 38.723 L 303.422 38.780 305.088 40.837 M266.974 70.460 C 281.313 72.365,286.521 86.555,276.409 96.166 C 272.351 100.024,265.468 100.475,210.893 100.457 C 131.739 100.432,126.362 99.444,126.362 84.925 C 126.362 76.249,131.478 71.435,142.484 69.754 C 149.042 68.753,258.806 69.375,266.974 70.460 M192.725 118.176 C 197.213 118.900,196.973 114.832,197.543 199.843 L 198.056 276.375 194.712 279.800 L 191.367 283.224 143.832 283.174 C 57.793 283.084,53.392 282.504,48.362 270.588 C 45.728 264.351,46.296 142.220,49.008 131.590 C 52.706 117.096,55.612 116.647,141.612 117.300 C 167.974 117.500,190.975 117.894,192.725 118.176 M322.785 117.637 C 364.263 118.985,361.078 111.735,360.553 203.639 C 360.103 282.535,360.988 278.898,341.612 281.409 C 325.536 283.492,216.739 283.260,214.616 281.138 C 210.508 277.030,208.663 125.818,212.643 119.379 C 213.954 117.258,279.314 116.225,322.785 117.637 M94.153 331.811 C 103.664 336.466,109.784 345.934,110.501 357.104 C 112.272 384.703,72.462 394.765,59.425 370.013 C 47.703 347.757,72.037 320.988,94.153 331.811 M332.387 331.202 C 347.803 336.969,355.568 355.008,348.669 369.023 C 338.073 390.546,305.979 388.947,299.332 366.565 C 292.771 344.469,312.224 323.657,332.387 331.202 M307.093 434.897 C 304.644 435.328,301.546 436.096,300.209 436.605 L 297.779 437.529 298.277 448.733 C 298.551 454.895,299.152 460.667,299.612 461.559 C 300.072 462.451,300.798 464.356,301.225 465.793 C 302.592 470.393,305.057 470.929,326.539 471.307 L 345.889 471.648 348.470 467.578 C 355.541 456.427,355.267 438.312,347.987 435.766 C 343.969 434.361,313.785 433.719,307.093 434.897 M61.438 435.227 C 60.959 435.420,59.462 435.822,58.113 436.120 C 53.433 437.156,52.093 444.066,54.432 455.102 C 57.073 467.565,59.215 469.602,71.391 471.228 C 103.346 475.497,110.032 471.375,110.184 447.310 C 110.263 434.620,112.106 435.501,84.792 435.159 C 72.426 435.003,61.917 435.034,61.438 435.227 " stroke="none" fill="#000000" fill-rule="evenodd"></path></g></svg>